<svg xmlns="http://www.w3.org/2000/svg" viewBox="0 0 32 32">
    <path d="M-2338,1001a15.9,15.9,0,0,1-11.314-4.687A15.9,15.9,0,0,1-2354,985a15.9,15.9,0,0,1,4.686-11.314A15.9,15.9,0,0,1-2338,969a15.9,15.9,0,0,1,11.314,4.686A15.9,15.9,0,0,1-2322,985a15.9,15.9,0,0,1-4.686,11.314A15.9,15.9,0,0,1-2338,1001Zm4.518-18.543a3.5,3.5,0,0,0-3.336,1.906,4.794,4.794,0,0,0-.475,1.906,4.052,4.052,0,0,0,.936,2.73,3.758,3.758,0,0,0,2.875,1.063s.05,0,.136,0a4.606,4.606,0,0,0,1.868-.386,2.313,2.313,0,0,0,1.393-2.254h-1.746a.938.938,0,0,1-.262.637,1.771,1.771,0,0,1-1.329.431h-.061a1.954,1.954,0,0,1-.959-.25,1.585,1.585,0,0,1-.728-1.478h5.143a4.71,4.71,0,0,0-.856-3.288A3.289,3.289,0,0,0-2333.481,982.458Zm-10.328,7.4h3.007a3.987,3.987,0,0,0,1.687-.4,2.615,2.615,0,0,0,1.431-2.53,3.009,3.009,0,0,0-.611-1.969,1.642,1.642,0,0,0-1.244-.5,1.8,1.8,0,0,0,.754-.278,1.794,1.794,0,0,0,.757-1.61,2.532,2.532,0,0,0-2.809-2.641H-2346v9.922Zm8.2-9.338v1.222h4.093v-1.222Zm-5.355,7.574h-2.755v-2.652h2.888a1.036,1.036,0,0,1,.539.175,1.33,1.33,0,0,1,.507,1.187C-2339.79,987.635-2340.187,988.069-2340.969,988.093Zm9.04-2.652h-3.259a1.776,1.776,0,0,1,1.746-1.53,1.447,1.447,0,0,1,1.074.4,1.765,1.765,0,0,1,.438,1.132Zm-9.086-1.53h-2.709V981.7h2.888c.007,0,.7.012.7,1.032C-2340.134,983.768-2340.558,983.911-2341.015,983.911Z" transform="translate(2354 -969)"/>
</svg>