<?xml version="1.0" encoding="utf-8"?>
<!-- Generator: Adobe Illustrator 17.1.0, SVG Export Plug-In . SVG Version: 6.00 Build 0)  -->
<!DOCTYPE svg PUBLIC "-//W3C//DTD SVG 1.1//EN" "http://www.w3.org/Graphics/SVG/1.1/DTD/svg11.dtd">
<svg version="1.1" id="Layer_1" xmlns="http://www.w3.org/2000/svg" xmlns:xlink="http://www.w3.org/1999/xlink" x="0px" y="0px"
	 viewBox="0 0 841.9 595.3" enable-background="new 0 0 841.9 595.3" xml:space="preserve">
<g>
	<path d="M717.1,298c0-28.9-0.2-58.1,0-87c0-11.9-4.5-20.5-14.5-27.2c-88.1-58.5-175.9-117.2-264-176.1c-12.1-8.2-23.1-8-35.4,0.2
		C315.6,66.7,228,125.4,140,183.6c-10.6,6.9-15.3,16-15.1,28.5c0.2,57.2,0.2,114.2,0,171.4c0,12.1,4.7,20.9,14.9,27.8
		c88.1,58.5,175.9,117.2,264,176.1c11.9,8,22.9,7.8,34.8-0.2c87.8-58.9,175.9-117.6,264-176.1c10.4-6.7,14.9-15.5,14.7-27.8
		C716.9,354.8,717.3,326.3,717.1,298z M446.9,77.9c0-0.6,0.4-1.1,1.1-2.6c65.8,43.8,131.4,87.6,197.9,131.9
		c-15.1,10.1-29.8,19.9-44.2,29.6c-13.4,9.1-26.8,18.1-40.4,26.8c-2.4,1.3-6.7,1.5-8.6,0.2c-33.9-22.4-67.6-45.1-101.4-67.8
		c-2.2-1.5-4.3-4.7-4.3-6.9C446.7,151.9,446.7,115,446.9,77.9z M394.6,74.9c0.2,3.5,0.4,5.6,0.4,7.6c0,34.5,0,69.1,0.2,103.6
		c0,5-1.3,8-5.6,10.8c-33.2,22-66.3,44.5-99.5,66.3c-2.2,1.3-6.7,2.2-8.4,1.3c-28.3-18.3-56.3-37.3-85.7-57
		C262.6,162.9,328.2,119.1,394.6,74.9z M176,254.9c21.6,14.5,42.1,28.1,63.5,42.3c-21.4,14.5-41.7,28.1-63.5,42.5
		C176,310.8,176,283.8,176,254.9z M395.3,516c0,0.9-0.4,1.7-0.9,3.9c-66.5-44.2-131.9-88.1-198.4-132.3c8.8-5.8,16.8-11.2,24.8-16.6
		c19.4-13,39.1-25.9,58.3-39.1c4.1-3,6.9-3.5,11.7-0.4c32.8,22.4,66,44.2,99.1,66.7c2.6,1.7,5.2,5.4,5.2,8.4
		C395.5,442.9,395.3,479.6,395.3,516z M426.8,353.7c-2.6,1.5-7.3,2.6-9.3,1.3c-28.9-18.8-57.2-38-86.6-57.6
		c29.6-19.9,58.1-38.9,86.6-57.6c1.5-1.1,5.4-1.1,7.1,0c28.7,18.8,57,38,86.3,57.6c-5.2,3.5-9.7,6.5-14,9.7
		C473.6,322.6,450.3,338.4,426.8,353.7z M446.4,520.3c0-39.5,0-76.8,0.2-114.2c0-2.4,1.9-5.8,4.1-7.1c35.2-23.7,70.4-47.1,106-71
		c29.4,19.9,58.7,39.3,88.9,59.6C579.4,431.6,513.6,475.5,446.4,520.3z M665.7,339.5c-21.2-14-41.7-27.6-63.2-42.1
		c21.4-14.2,41.9-27.8,63.2-42.3C665.7,283.6,665.7,310.8,665.7,339.5z"/>
</g>
</svg>
