<svg xmlns="http://www.w3.org/2000/svg" viewBox="0 0 32 32">
    <path d="M-2338,1001a15.9,15.9,0,0,1-11.314-4.686A15.9,15.9,0,0,1-2354,985a15.9,15.9,0,0,1,4.686-11.314A15.9,15.9,0,0,1-2338,969a15.9,15.9,0,0,1,11.314,4.686A15.9,15.9,0,0,1-2322,985a15.9,15.9,0,0,1-4.686,11.314A15.9,15.9,0,0,1-2338,1001Zm0-24a8.009,8.009,0,0,0-8,8,8.009,8.009,0,0,0,8,8,8.009,8.009,0,0,0,8-8A8.009,8.009,0,0,0-2338,977Zm0,14.844a6.762,6.762,0,0,1-4.195-1.443,9.37,9.37,0,0,1,5.361-4.267l.021-.007.025-.008a28.721,28.721,0,0,1,1.458,5.182A6.784,6.784,0,0,1-2338,991.844Zm3.817-1.169v0a29.266,29.266,0,0,0-1.327-4.87,9.011,9.011,0,0,1,1.425-.11,9.965,9.965,0,0,1,2.832.4,6.863,6.863,0,0,1-2.927,4.579Zm-8.894-1.1h0a6.811,6.811,0,0,1-1.756-4.568c0-.081,0-.146,0-.208l.219,0a25.35,25.35,0,0,0,6.8-.975c.208.408.395.8.554,1.16-.086.024-.177.051-.269.081a10.96,10.96,0,0,0-5.553,4.508Zm11.91-4.633h0a16.961,16.961,0,0,0-3.186-.312,12.679,12.679,0,0,0-1.571.093c-.058-.14-.1-.248-.149-.353-.137-.322-.29-.655-.453-.99a9.118,9.118,0,0,0,3.816-2.694,6.85,6.85,0,0,1,1.543,4.255Zm-13.411-1.334h-.112a6.876,6.876,0,0,1,3.783-4.785,43.2,43.2,0,0,1,2.533,3.952A25.56,25.56,0,0,1-2344.577,983.612Zm7.526-1.245h0a36.31,36.31,0,0,0-2.549-4,6.871,6.871,0,0,1,1.6-.19,6.82,6.82,0,0,1,4.53,1.723,7.776,7.776,0,0,1-3.581,2.467Z" transform="translate(2354 -969)"/>
</svg>