<?xml version="1.0" encoding="utf-8"?>
<!-- Generator: Adobe Illustrator 17.1.0, SVG Export Plug-In . SVG Version: 6.00 Build 0)  -->
<!DOCTYPE svg PUBLIC "-//W3C//DTD SVG 1.1//EN" "http://www.w3.org/Graphics/SVG/1.1/DTD/svg11.dtd">
<svg version="1.1" id="Layer_1" xmlns="http://www.w3.org/2000/svg" xmlns:xlink="http://www.w3.org/1999/xlink" x="0px" y="0px"
	 viewBox="0 0 841.9 595.3" enable-background="new 0 0 841.9 595.3" xml:space="preserve">
<g>
	<path d="M420.9,0.1c102.3,0,204.6,0.1,306.9-0.1c23.7,0,43.2,8.1,58,26.8C797,41,801,57.2,799.7,75.1c-2.2,29.2-15.9,53-34.4,74.8
		c-18.9,22.3-43.2,37.8-66.8,54.2c-69.1,48.2-138.1,96.5-207.4,144.4c-11.4,7.9-23.4,14.8-35.6,21.4c-23.1,12.3-46.8,12.5-69.4-0.5
		c-19-10.8-37.5-22.8-55.5-35.3c-69.4-48.1-138.4-96.8-207.9-144.8c-26.1-18-48.2-39.6-65.3-66.3c-18-28-20.3-57.4-6.2-87.4
		C63.3,9.7,85.1-0.2,112.8,0c47.4,0.3,94.8,0.1,142.3,0.1C310.3,0.1,365.6,0.1,420.9,0.1z"/>
	<path d="M66.1,579.3c71.6-71.6,142.9-142.9,214.6-214.6c13.9,9.9,28.3,19.9,42.5,30.2c19.1,13.9,40,24.2,62.1,32
		c29.3,10.3,57.6,6.5,85.8-5.3c30-12.6,55.2-32.3,81.5-50.7c3-2.1,6-4.3,8.6-6.1c71.6,71.7,142.9,142.9,214.5,214.6
		c-9.2,8.8-20.9,13.7-34,15.5c-4.5,0.6-9.1,0.8-13.6,0.8c-204.6,0-409.2,0-613.8,0.1C96.2,595.8,79.8,591.8,66.1,579.3z"/>
	<path d="M42.2,515.9c0-106.5,0-214.3,0-322.8c7.6,7.1,14.2,14.6,22.1,20.2c29.4,21.2,59.1,41.9,88.8,62.5
		c25.6,17.8,51.5,35.4,76.6,52.7C167.1,391.3,104.4,453.8,42.2,515.9z"/>
	<path d="M612.3,328.7c10.3-7.1,21.6-14.8,32.8-22.5c39.7-27.3,79.7-54.4,119.1-82.2c12.6-8.9,23.7-19.8,35.5-29.8
		c0,107.2,0,215,0,321.9C737.5,454.1,675,391.6,612.3,328.7z"/>
</g>
</svg>
