<?xml version="1.0" encoding="utf-8"?>
<!-- Generator: Adobe Illustrator 17.1.0, SVG Export Plug-In . SVG Version: 6.00 Build 0)  -->
<!DOCTYPE svg PUBLIC "-//W3C//DTD SVG 1.1//EN" "http://www.w3.org/Graphics/SVG/1.1/DTD/svg11.dtd">
<svg version="1.1" id="Layer_1" xmlns="http://www.w3.org/2000/svg" xmlns:xlink="http://www.w3.org/1999/xlink" x="0px" y="0px"
	 viewBox="0 0 841.9 595.3" enable-background="new 0 0 841.9 595.3" xml:space="preserve">
<g>
	<path d="M469.2,183.5c-15.3-6.5-31.4-9.7-48.2-9.7c-16.8,0-33,3.2-48.2,9.7c-14.8,6.3-28,15.2-39.3,26.6
		c-11.4,11.4-20.3,24.7-26.6,39.3c-6.5,15.3-9.7,31.4-9.7,48.2c0,16.8,3.2,33,9.7,48.2c6.3,14.8,15.2,28,26.6,39.3
		c11.4,11.4,24.7,20.3,39.3,26.6c4.2,1.8,8.5,3.3,12.8,4.7v-22.5c0-11.7,3.9-20.2,11.8-25.6c-5-0.5-9.6-1.1-13.7-2
		c-4.1-0.9-8.6-2.1-13.2-3.7c-4.7-1.6-8.8-3.5-12.5-5.9c-3.7-2.2-7.3-5.2-10.6-8.8c-3.4-3.6-6.3-7.7-8.6-12.2
		c-2.3-4.5-4.1-10-5.5-16.4c-1.3-6.4-2-13.4-2-21.1c0-14.9,4.9-27.6,14.6-38c-4.4-11.4-3.9-24,1.4-37.6c0.3-0.1,0.8-0.2,1.4-0.3
		c0.7-0.1,2.2,0,4.5,0.1c2.3,0.2,4.9,0.7,7.6,1.5c2.7,0.8,6.4,2.3,10.9,4.7c4.5,2.2,9.4,5.2,14.5,8.6c11.2-3.1,23-4.8,35.4-4.8
		s24.2,1.6,35.6,4.8c8.1-5.5,15.4-9.4,21.8-11.8c6.5-2.4,10.9-3.4,13.4-3.1l3.6,0.4c5.4,13.5,5.9,26.1,1.4,37.6
		c9.7,10.5,14.6,23.2,14.6,38c0,7.7-0.7,14.8-2,21.1c-1.3,6.4-3.1,11.8-5.5,16.4c-2.3,4.5-5.2,8.6-8.6,12.2c-3.4,3.6-7,6.6-10.6,8.8
		c-3.7,2.2-7.9,4.2-12.5,5.9c-4.7,1.6-9.1,2.9-13.2,3.7c-4.1,0.9-8.8,1.5-13.7,2c8,5.5,11.9,14.1,11.9,25.6V416
		c3.8-1.2,7.7-2.6,11.4-4.1c14.8-6.3,28-15.2,39.3-26.6c11.4-11.4,20.3-24.7,26.6-39.3c6.5-15.3,9.7-31.4,9.7-48.2s-3.2-33-9.7-48.2
		c-6.3-14.8-15.2-28-26.6-39.3C497.2,198.7,483.9,189.7,469.2,183.5z"/>
	<path d="M631.4,87.2C575.7,31.2,499.9-0.2,420.9,0c-79-0.2-154.8,31.2-210.5,87.2c-56,55.7-87.4,131.5-87.2,210.5
		c-0.2,79,31.2,154.8,87.2,210.4c55.7,56,131.5,87.4,210.5,87.2c79,0.2,154.8-31.2,210.5-87.2c56-55.7,87.4-131.5,87.2-210.5
		C718.8,218.7,687.4,142.9,631.4,87.2z M420.9,445c-81.4,0-147.4-66-147.4-147.4s66-147.4,147.4-147.4s147.4,66,147.4,147.4
		S502.4,445,420.9,445z"/>
</g>
</svg>
