<?xml version="1.0" encoding="utf-8"?>
<!-- Generator: Adobe Illustrator 17.1.0, SVG Export Plug-In . SVG Version: 6.00 Build 0)  -->
<!DOCTYPE svg PUBLIC "-//W3C//DTD SVG 1.1//EN" "http://www.w3.org/Graphics/SVG/1.1/DTD/svg11.dtd">
<svg version="1.1" id="Layer_1" xmlns="http://www.w3.org/2000/svg" xmlns:xlink="http://www.w3.org/1999/xlink" x="0px" y="0px"
	 viewBox="0 0 841.9 595.3" enable-background="new 0 0 841.9 595.3" xml:space="preserve">
<g>
	<path d="M718.5,297.5c0,84,0,167.9,0.1,251.9c0,12.1-3.2,22.9-11.5,31.8c-8.5,9.1-19.1,14-31.7,14c-169.7,0.1-339.4,0-509,0
		c-22.9,0-42.3-18.9-42.8-41.7c-0.1-2.3-0.1-4.7-0.1-7c0-166.9,0-333.7,0-500.6c0-8.6,1.2-16.9,5.8-24.4
		c8.6-13.8,21.2-21.2,37.4-21.2c169.6-0.1,339.2-0.1,508.7-0.1c23.6,0,42.3,18.2,43.2,41.8c0.1,1.6,0.1,3.1,0.1,4.7
		C718.5,130.4,718.5,213.9,718.5,297.5z M355.3,365.3c0,46.2,0,92.3-0.1,138.5c0,2.7,0.7,3.3,3.4,3.3c27.1-0.1,54.1-0.1,81.2,0
		c2.7,0,3.3-0.7,3.3-3.3c-0.1-46.4-0.1-92.7,0-139.1c0-13.7,1-27.2,5.8-40.2c4.4-12.1,11.8-21.5,24-26.6c8.1-3.4,16.5-4.2,25.1-4.2
		c19.6,0.1,33.1,9.7,39.3,28.2c4.3,12.8,4.9,26.1,4.9,39.5c0.1,47.5,0,95,0,142.6c0,2.6,0.7,3.2,3.2,3.2c27.5-0.1,54.9-0.1,82.4,0
		c2.5,0,3-0.6,3-3c-0.1-25.4,0-50.8-0.1-76.3c-0.2-32.7,0.8-65.4-0.6-98.1c-0.8-20.2-3.6-40.1-11.2-59c-9-22.4-24.4-38.5-47.3-46.9
		c-16.1-5.9-32.8-7.6-49.9-7.3c-16.7,0.4-32.5,4.2-47.1,12.5c-13.6,7.7-24.8,18-32.7,31.7c-0.4,0.7-0.6,1.8-1.8,1.5
		c-1.2-0.4-0.6-1.5-0.7-2.3c0-11-0.1-22,0-33c0-2.8-0.6-3.6-3.5-3.6c-25.8,0.1-51.6,0.1-77.4,0c-2.8,0-3.5,0.7-3.5,3.5
		C355.3,273,355.3,319.1,355.3,365.3z M211.7,365.2c0,46.4,0,92.7-0.1,139.1c0,2.3,0.6,2.9,2.9,2.9c27.4-0.1,54.7-0.1,82.1,0
		c2.4,0,3-0.6,3-3c-0.1-92.5-0.1-185,0-277.5c0-2.6-0.6-3.2-3.2-3.2c-27.2,0.1-54.3,0.1-81.5,0c-2.7,0-3.3,0.8-3.3,3.4
		C211.7,272.8,211.7,319,211.7,365.2z M204.7,133.2c-0.2,28.1,22.6,51.2,50.6,51.4c28.3,0.3,51.6-22.7,51.9-50.9
		c0.2-28.2-22.8-51.4-51.2-51.6C227.9,82,204.9,104.8,204.7,133.2z"/>
</g>
</svg>
