<svg xmlns="http://www.w3.org/2000/svg" viewBox="0 0 32 32">
    <path d="M-2357,609a15.894,15.894,0,0,1-11.313-4.687A15.9,15.9,0,0,1-2373,593a15.9,15.9,0,0,1,4.687-11.314A15.9,15.9,0,0,1-2357,577a15.9,15.9,0,0,1,11.314,4.686A15.9,15.9,0,0,1-2341,593a15.9,15.9,0,0,1-4.686,11.314A15.9,15.9,0,0,1-2357,609Zm3.113-18.449h0v7.269c0,.2,0,.231-.127.358l-1.292,1.255v.269h6.275v-.269l-1.247-1.225a.372.372,0,0,1-.142-.358v-9a.372.372,0,0,1,.142-.358l1.277-1.225V587h-4.422l-3.153,7.863L-2360.16,587h-4.638v.269l1.494,1.8a.617.617,0,0,1,.2.522v7.072a.816.816,0,0,1-.216.7L-2365,599.4v.269h4.765V599.4l-1.68-2.039a.839.839,0,0,1-.231-.7v-6.116l4.182,9.126h.486Z" transform="translate(2373 -577)"/>
</svg>