<?xml version="1.0" encoding="utf-8"?>
<!-- Generator: Adobe Illustrator 17.1.0, SVG Export Plug-In . SVG Version: 6.00 Build 0)  -->
<!DOCTYPE svg PUBLIC "-//W3C//DTD SVG 1.1//EN" "http://www.w3.org/Graphics/SVG/1.1/DTD/svg11.dtd">
<svg version="1.1" id="Layer_1" xmlns="http://www.w3.org/2000/svg" xmlns:xlink="http://www.w3.org/1999/xlink" x="0px" y="0px"
	 viewBox="0 0 217 217" enable-background="new 0 0 217 217" xml:space="preserve">
<g>
	<path d="M108,59.9c-30.1,0-60.3,0-90.4,0c-8.5,0-14-5.3-14-12.9c0.1-7.6,5.5-12.7,14.2-12.7c16.3-0.1,32.6,0,49,0
		c43.8,0,87.6,0,131.4,0c9.1,0,14.5,4.2,15.1,11.7c0.7,8.1-5,13.9-13.9,14C169,59.9,138.5,59.9,108,59.9z"/>
	<path d="M108.7,157.1c30.1,0,60.3,0,90.4,0c9.6,0,15.5,6.4,14,15.1c-1.1,6.6-6.3,10.6-14.2,10.6c-20.2,0-40.3,0-60.5,0
		c-39.3,0-78.6,0-117.9,0c-1.2,0-2.3,0-3.5,0c-8.2-0.3-13.6-5.5-13.5-12.9c0-7.5,5.5-12.7,13.6-12.8c15.8-0.1,31.6,0,47.5,0
		C79.4,157,94,157,108.7,157.1C108.7,157.1,108.7,157.1,108.7,157.1z"/>
	<path d="M108.7,95.8c30.3,0,60.6,0,90.9,0c7.6,0,12.6,3.9,13.6,10.5c1.3,8.6-4.3,14.9-13.7,14.9c-26.8,0.1-53.6,0-80.4,0
		c-32,0-63.9,0-95.9,0c-1.2,0-2.3,0-3.5,0c-10.5-0.1-16.1-4.5-16.1-12.8c0-8.3,5.6-12.7,16.1-12.7C49.4,95.8,79,95.8,108.7,95.8z"/>
</g>
</svg>
