<svg xmlns="http://www.w3.org/2000/svg" viewBox="0 0 32 32">
    <path d="M-2368,822a16,16,0,0,1,16-16,16,16,0,0,1,16,16,16,16,0,0,1-16,16A16,16,0,0,1-2368,822Zm13.032,6.5a9.276,9.276,0,0,0,9.34-9.338c0-.143,0-.284-.01-.425a6.694,6.694,0,0,0,1.638-1.7,6.593,6.593,0,0,1-1.885.517,3.3,3.3,0,0,0,1.444-1.816,6.564,6.564,0,0,1-2.085.8,3.275,3.275,0,0,0-2.4-1.037,3.283,3.283,0,0,0-3.282,3.283,3.247,3.247,0,0,0,.086.748,9.324,9.324,0,0,1-6.766-3.43,3.257,3.257,0,0,0-.445,1.651,3.284,3.284,0,0,0,1.461,2.732,3.276,3.276,0,0,1-1.488-.411v.041a3.283,3.283,0,0,0,2.633,3.218,3.31,3.31,0,0,1-.865.115,3.258,3.258,0,0,1-.618-.059,3.286,3.286,0,0,0,3.067,2.28,6.589,6.589,0,0,1-4.077,1.4,6.792,6.792,0,0,1-.783-.045A9.3,9.3,0,0,0-2354.968,828.5Z" transform="translate(2368 -806)"/>
</svg>