<?xml version="1.0" encoding="utf-8"?>
<!-- Generator: Adobe Illustrator 17.1.0, SVG Export Plug-In . SVG Version: 6.00 Build 0)  -->
<!DOCTYPE svg PUBLIC "-//W3C//DTD SVG 1.1//EN" "http://www.w3.org/Graphics/SVG/1.1/DTD/svg11.dtd">
<svg version="1.1" id="Layer_1" xmlns="http://www.w3.org/2000/svg" xmlns:xlink="http://www.w3.org/1999/xlink" x="0px" y="0px"
	 viewBox="0 0 1131.4 1130.8" enable-background="new 0 0 1131.4 1130.8" xml:space="preserve">
<g>
	<path d="M465.5,268.9c3.2,5.6,7,10.9,9.4,16.8c4.6,11.6,3.5,23.7,1.1,36.3c3.8-1.3,7.3-2.1,10.4-3.7c1.5-0.8,3-2.9,3.3-4.6
		c1.8-9.6,1.8-19.1-2-28.3c-0.4-1.1-0.8-2.2-0.6-3.4c7.5,9.4,14.2,19.2,11.7,32.2c15.3-2.7,30-5.3,45.2-8
		c-0.4-10.6-2.2-21.2-6.3-31.5c-6.1-15.4-15.9-28.2-26.9-40.4c-9.1-10.1-18.1-20.3-27-30.5c-0.9-1-1.3-2.3-2-3.4
		c0.4-0.3,0.8-0.5,1.2-0.8c1.9,2.6,3.4,5.5,5.7,7.7c7.9,7.6,15.7,15.3,24,22.3c14.6,12.3,28.4,25.1,36.8,42.7
		c4.6,9.7,8.9,19.6,6.7,30.9c0.5,0.1,1,0.2,1.4,0.3c0.8-2.3,2.1-4.5,2.2-6.8c0.6-9.8-1.8-18.7-8.5-26.3c-1.1-1.3-1.9-2.9-2.8-4.4
		c0.4-0.5,0.7-1,1.1-1.5c2,1.1,4.5,1.8,6,3.4c6.3,6.8,9.6,15,10.1,24.6c0.4-1.7,1.2-3.4,1.2-5.1c0.2-11.8-0.2-23.6,0.3-35.3
		c0.6-13.8,1.7-27.6,2.8-41.3c1-13.4,2.1-26.8,3.3-40.3c0.1-1.1,0.6-2.2,2-3.2c-0.4,18.6-0.8,37.1-1.3,55.7
		c-0.5,18.6-1.2,37.1-0.9,56c2.3-6.3,5.4-12.5,6.6-19c1.8-10.2,2.4-20.7,3.1-31.1c0.7-10.1,0.1-20.3,1.5-30.2
		c3.5-25.8,15.1-47.8,32.8-66.8c10.8-11.7,17.6-25.4,19.2-41.3c0.5-4.5-0.5-9.1-0.8-13.2c-2.4-0.3-3.8-0.5-5.3-0.6
		c0.4-1.6,0.5-4.4,1.3-4.6c1.7-0.6,4.9-0.4,5.6,0.6c3.3,5.1,6.2,10.5,8.9,15.9c1.2,2.5,1.6,5.4,2.5,8.5c3-3.5,6.2-5.4,10.1-0.2
		c-10.4,4.1-8.6,13.1-9.2,21.9c-1,14.7-3,29.4-5.7,43.9c-4.1,21.7-3,42.8,3.8,63.9c5.1,15.8,9,32,8.8,48.8
		c-0.2,14.3-2.6,28-10.3,40.4c-0.3,0.5-0.4,1.2-0.6,1.9c7.3,2.9,14.5,5.9,21.8,8.5c1.4,0.5,3.7,0,5-0.9
		c15.6-11.1,26.4-25.7,30.4-44.6c1.1-5,0.2-10.3,0.5-15.4c0.2-3.2,0.9-6.3,1.5-9.9c0.9,0.8,1.3,1,1.3,1.1c-1,13.1-0.8,26.4-3.4,39.1
		c-3,15.3-14.3,25.3-27,33.5c0.2,0.4,0.2,0.8,0.4,0.9c11.4,6.6,16.1,5.8,24.2-4.6c3.4-4.4,6-9.4,9.1-14.1c0.5-0.8,1.2-1.4,2.1-1.9
		c-2.1,11.4-3,23.4-14.7,30.6c12.6,9,24.9,17.7,37.5,26.6c13.5-13.8,21.6-30.8,24.8-50.1c1.2-7.3,1.8-14.8,2.2-22.3
		c0.8-12.8,1.3-25.7,2.1-38.5c0.2-2.5,1.2-4.9,1.8-7.4c0.4,0.1,0.9,0.2,1.3,0.3c-0.4,2.8-1.2,5.6-1.2,8.4c0,8.8-0.4,17.7,0.5,26.4
		c2.3,21.6,3.8,43-3.6,64.1c-3.5,10.1-8.9,18.8-17,25.8c0.2,0.4,0.4,0.7,0.6,1.1c1.6-0.7,3.4-1,4.7-2c8.6-6.4,13.2-15.1,14.5-25.7
		c0.2-1.8,0.9-3.6,1.4-5.8c6.1,5.5,3.6,14.8-7.3,31.5c29.7-29.9,63-55.6,94.4-83.5c0.4,0.5,0.9,1,1.3,1.4
		c-27.1,25.5-54.1,51-81.2,76.6c9.8-2.8,18.8-7.3,26.7-13.6c5.9-4.8,11.7-9.9,16.8-15.5c16.2-17.6,35.6-30.4,58.3-37.7
		c7-2.3,14.6-3.1,22-3.7c14.4-1.2,28.8-2.6,42-9.1c8.8-4.3,16.4-9.9,21.1-18.6c-1.4-1.3-2.4-2.3-3.4-3.3c1.2-1,2.3-2.8,3.6-2.9
		c1.2-0.1,3.3,1.3,3.7,2.4c0.7,1.8,0.9,4.2,0.5,6.2c-3.7,16.3-13.3,29-25.7,39.4c-13.3,11.2-27.5,21.5-41.7,31.6
		c-14.2,10.1-24.4,23.3-32.6,38.4c-7.5,13.9-15.4,27.5-26,39.4c-10.6,11.9-22.7,21.3-38.1,26.2c-0.9,0.3-1.8,0.8-3,1.4
		c3.3,7.4,6.4,14.6,9.7,21.7c0.3,0.7,1.6,1,2.4,1.3c17.8,4.4,34.7,1.5,50.4-7.4c5.5-3.1,9.9-8.3,14.9-12.5c2.5-2.1,5.2-4.1,7.9-6.3
		c0.6,1.3,0.9,1.8,0.8,1.8c-11.1,9.1-21.8,18.8-33.6,27c-7.4,5.2-16.9,5.4-26,4.7c-4.4-0.3-8.8-0.8-13.2-1.2
		c2.5,10.8,1.3,13.5,14.3,13.8c7.8,0.2,15.7,0.7,22.7-3.7c0.6-0.4,1.5-0.3,2.4,0.1c-9.8,7.1-19.2,14.9-32.6,11.9
		c2.1,12.3,4.4,24.6,6.4,37c1.5,9.1,1.3,8.4,10.6,7.4c25.6-2.9,45.5-16.2,63.6-33.3c7.6-7.2,15.2-14.4,23-21.3c3-2.7,6.6-4.6,10-6.8
		c0.3,0.4,0.6,0.8,0.9,1.3c-3.3,2.5-7.1,4.5-9.9,7.5c-9.4,10.1-18.4,20.5-27.4,30.9c-13,15.1-28.3,27.1-47.5,33.2
		c-5.7,1.8-12.1,1.8-18.8,2.7c1.4,0.8,2.5,1.9,3.8,2.1c10.7,1.7,20.5-0.7,28.9-7.7c1.4-1.1,2.9-2.1,4.3-3.2c0.5,0.2,1,0.4,1.5,0.6
		c-0.6,1.8-0.8,3.9-2,5.3c-5.5,6.3-12.7,9.4-21,10c-1.6,0.1-3.2,0-4.9,0.6c41.9,2.6,83.8,5.2,125.8,7.8c0,0.8-0.1,1.6-0.1,2.4
		c-37.1-1-74.2-2.1-111.2-3.1c-0.1,0.3-0.3,0.6-0.4,0.9c3.9,1.5,7.8,3.1,11.8,4.4c15.9,5.4,32.4,4.6,48.8,4.9
		c25.9,0.4,50.2,7,71.3,22.7c9.1,6.7,17.6,14.2,26.8,20.6c11.9,8.2,25.2,11.6,39.7,9.9c1.1-0.1,2.2-0.5,2.8-0.7
		c0.2-2,0.4-3.5,0.5-5.1c1.6,0.5,4.3,0.6,4.7,1.6c0.7,1.6,0.6,5.1-0.4,5.6c-5.9,3.5-11.9,7.3-18.5,9.2c-17.3,5.1-34.8,3.8-52.3,0.5
		c-12.9-2.4-25.9-4.1-38.9-5.9c-12.1-1.7-23.8,1-35.5,3.9c-15.1,3.7-30.1,8.2-45.5,10.4c-18.7,2.8-37.2,0.6-54.8-9.6
		c-1.8,4.9-2.7,9.6-5.1,13.6c-4.6,7.8-3,13.4,3,19.9c11.1,12,23.9,20.6,40.1,23.1c6.4,1,12.9,0.8,19.4,1.4c1.6,0.1,3.2,0.8,4.8,1.2
		c-0.1,0.5-0.2,1-0.3,1.5c-3.6-0.3-7.3-0.6-10.9-0.9c-8.9-0.7-18-0.7-26.7-2.4c-14.9-2.9-25.1-12.8-33.5-24.8
		c-0.6-0.9-1.3-1.8-2.3-3.2c-1.9,3.8-3.7,7.1-5.1,10.6c-0.4,1.1,0.1,2.9,0.8,4c4.9,7.9,11.3,14.3,19.9,18.2c1.7,0.8,3.4,1.8,5.5,2.9
		c-9.6,1.8-22.6-4.1-31.9-13.9c-8.6,12.3-17.2,24.6-26.1,37.2c10.6,9.9,22.6,17.4,36.7,21.7c12.5,3.8,25.4,5,38.3,5.6
		c8.4,0.4,16.9,0,25.4,0.6c6.1,0.4,12.2,1.8,18.3,2.8c-0.1,0.5-0.1,1-0.2,1.4c-3.7-0.3-7.4-0.8-11.1-0.8c-9.1,0-18.2-0.2-27.3,0.5
		c-16.6,1.4-33.3,2.9-49.7-0.7c-13.3-2.9-26.2-7.5-35.5-18.6c-0.6-0.7-1.4-1.2-2.9-2.5c0.7,6.9,4.8,10.8,9.1,13.3
		c5.7,3.3,12.4,4.9,18.7,7.2c1.8,0.6,3.6,1,5.7,1.6c-5,6.8-19.3,2.8-31.5-7.3c0.8,1.5,1.3,3.3,2.5,4.4c19.9,17.2,35.8,38,52.9,57.6
		c8.8,10.2,17.6,20.4,26.4,30.6c0.6,0.7,0.9,1.5,1.3,2.3c-0.3,0.3-0.6,0.5-0.9,0.8c-25.5-27-51-53.9-76.6-80.9
		c-0.4,0.2-0.7,0.4-1.1,0.6c3.3,6.3,6.3,12.8,9.9,19c6.9,11.8,17.2,20.6,26.6,30.2c18.2,18.6,30.7,40.4,34.6,66.5
		c1.3,8.9,1.1,18,2.7,26.8c3.2,17.5,9,33.8,25.7,44.1c0.7-1.5,1.3-2.8,2.6-5.6c1.3,2.9,3.4,6.1,2.9,6.6c-1.8,1.7-4.9,3.9-6.7,3.4
		c-6.4-1.9-12.9-4.2-18.8-7.5c-17.1-9.6-28.5-25.1-39.5-40.8c-9.5-13.6-18.3-28.1-31.7-38.2c-10.8-8.1-23.1-14.3-34.7-21.4
		c-15.7-9.6-30.7-20.2-41.2-35.6c-4.8-7-8-15.2-12.3-23.6c-2.4,1.2-5.4,2.8-8.3,4.3c0,0,0.2-0.2,0.2-0.2c-4,1.7-8.8,2.5-11.6,5.3
		c-2.5,2.5-3.7,7.1-4,11c-1.3,13.8,0.7,27.3,7.6,39.4c3.2,5.5,8,10.1,11.9,15.2c2.6,3.4,5.2,6.8,7.8,10.2c-0.6,0.4-1.2,0.9-1.9,1.3
		c-8.8-11-18.7-21.3-26.2-33.1c-7-11-5.9-24.2-4.2-36.9c0.2-1.3,0.5-2.5,0.8-4.4c-3.9,1.2-7.4,2-10.6,3.3c-1.2,0.5-2.4,2.3-2.7,3.7
		c-2.2,10.4-2.3,20.7,2.5,30.6c0.2,0.4,0.3,0.9,0.3,1.4c0,0.3-0.2,0.6-0.7,1.5c-7.2-10-14.2-19.6-11.3-32.9
		c-15.3,2.7-30.3,5.3-45.4,8c0.5,24.8,10.2,45.8,26.4,64c8.4,9.4,17.2,18.4,25.5,27.8c3.8,4.2,6.9,9,10.4,13.5
		c-0.3,0.3-0.6,0.6-0.8,0.9c-0.6-0.3-1.5-0.4-1.8-0.8c-6.2-12.6-17.9-19.8-27.8-28.9c-9.4-8.7-19.2-17-27.3-26.7
		c-8.4-10-14.8-21.7-17.1-34.9c-0.7-3.9-0.4-7.9-1.1-11.9c-3.5,6.2-3.3,13-1,19.3c2.3,6.4,6,12.2,9.1,18.4
		c-8.2-0.2-14.1-10.6-16.3-27.2c-0.5,1.6-1.4,3.3-1.5,4.9c-0.1,9.7,0.4,19.5-0.1,29.2c-0.9,18.4-2.2,36.9-3.3,55.3
		c-0.2,3.6-2,7.5,1.2,10.8c0.2,0.3-0.9,1.8-1.3,2.8c-0.4,0.8-1.1,1.7-1.2,2.6c-0.7,6.6-1.3,13.2-2.9,19.8c-0.2-1.1-0.7-2.3-0.7-3.4
		c0.1-5.3-0.3-10.7,0.7-15.9c1.8-9-3.3-15-7.9-22c-1,5.4-2.1,10.2-2.9,15c-3.5,22.4-13.7,41.3-28.9,57.8
		c-9.3,10.1-16.2,21.8-20.3,35.1c-2.4,7.7-2.5,16.8,0.2,23.7c1.1-0.3,2.2-0.7,3.7-1.1c0.3,1,0.9,1.9,0.6,2.5
		c-0.6,1.4-1.3,3.3-2.4,3.7c-3.1,1.2-5.8-0.4-6.9-3.2c-3.2-8.3-7.2-16.5-8.8-25.1c-3.6-19.1,0.2-37.9,3.5-56.8
		c2.5-14.5,6-29.1,3.2-44c-2-11-4.9-22-7.8-32.8c-5.5-20.5-9.5-41.2-4.8-62.3c1.7-7.5,5-14.7,7.8-22.5c-2.3-0.6-5.1-1.3-7.9-2
		l0.2,0.1c-4.6-2.1-9.1-4.8-14-5.9c-2.1-0.5-5.2,1.7-7.4,3.4c-12.7,9.8-21.5,22.5-26.2,37.9c-0.9,3.1-0.6,6.5-0.8,9.8
		c-0.4,5.1-0.6,10.3-1.1,15.4c-0.1,1.4-0.9,2.8-1.7,5.2c0-7.3-0.5-13.3,0.1-19.2c0.8-8.4,1.5-17,3.8-25
		c3.5-12.2,12.3-20.7,22.4-27.8c1.2-0.8,2.4-1.6,4.3-2.8c-4.1-2-7.6-3.9-11.2-5.4c-0.8-0.3-2.1,0.3-3,0.8
		c-9.4,5.3-16.2,13.1-20.4,23c-0.4,0.8-0.7,1.7-1.2,3c-1.9-8.2,4.1-22.2,13.4-32.2c-12.1-8.6-24.3-17.2-37.3-26.4
		c-4,5.4-9,10.8-12.5,17c-8.5,14.9-13,31.1-13.6,48.4c-0.5,13.9-1.1,27.9-2,41.8c-0.2,4-1.4,7.9-2.2,11.9c-0.5-0.1-1.1-0.3-1.6-0.4
		c0.3-1.8,0.7-3.6,1-5.5c2.3-13.8-0.1-27.4-1.4-41.1c-2.2-24.1-1.1-48,13.2-69c2.4-3.5,5.6-6.5,9.4-10.8c-2.6,0.8-4.3,0.9-5.5,1.8
		c-8.6,6.5-14.3,14.7-14.8,25.9c-0.1,1.9-0.8,3.7-1.3,5.8c-6.8-4.8-3.5-18.1,6.2-30.7c-1.3,0.7-2.9,1.2-3.9,2.2
		c-10.3,9.9-20.1,20.4-30.8,29.8c-18.6,16.6-37.7,32.6-56.7,48.8c-0.8,0.7-1.8,1.1-2.7,1.6c-0.3-0.4-0.6-0.7-0.9-1.1
		c27.3-25.7,54.5-51.3,81.8-77c-12.2,3.7-23.1,9.8-32.4,18.2c-9.4,8.4-17.7,18.2-27.5,26c-19.4,15.5-41,26-66.6,27.1
		c-12.1,0.5-24.4,1.8-35.9,6.9c-10.3,4.6-19.2,10.4-24.6,19.7c1,1.7,1.7,3.1,2.5,4.5c-1.4,0.6-3.2,2.1-4.2,1.7
		c-1.5-0.6-3.5-2.5-3.4-3.8c0.3-8.8,4-16.5,8.7-23.8c9.7-15,23.3-25.7,37.7-35.8c15.7-11.1,32.5-21.2,43.6-37.4
		c6.2-9,11.4-18.7,16.8-28.2c10.1-17.6,21.8-33.9,39.3-44.9c6.4-4,13.4-6.8,21-10.6c-1.9-3.8-4.6-8.1-6-12.7
		c-2-6.8-5.4-10.7-13.1-11.3c-21.1-1.6-39.9,2.7-55.1,18.4c-3.3,3.4-7.4,6.1-11.1,9.1c-0.4-0.5-0.8-1-1.2-1.5
		c3.2-2.7,6.4-5.3,9.5-8.1c5.2-4.6,10.3-9.4,15.6-13.9c11.4-9.5,25-10.8,39.1-9.7c3.1,0.3,6.2,1,9.2,1.4c-1-11.1-2.6-12.9-13.2-14.2
		c-8-0.9-15.9-0.6-23.3,3.3c-0.8,0.4-1.7,0.6-3,1c4.1-7.7,19.6-13.8,32.3-13c-2.6-14.8-5.2-29.5-7.9-44.9c-9,0.5-18.2,1.6-27.2,4.8
		c-16.7,5.8-30.6,15.6-43.3,27.7c-9.5,9-19.5,17.5-29.4,26.1c-1.6,1.4-3.7,2.2-6.2,2.5c0.3-0.5,0.4-1.3,0.9-1.5
		c12.6-7,20.9-18.3,29.7-29.2c13.3-16.6,28.4-31.3,48.8-39c7.4-2.8,15.5-3.8,24.2-5.8c-3.8-0.6-7.2-1.5-10.5-1.5
		c-8.8,0-16.5,3.1-23.2,8.8c-1.2,1-3,1.1-4.6,1.6c0.6-1.7,0.8-3.7,1.8-5c6.6-7.8,15.7-9.8,25.4-10.2c0-0.4,0.1-0.8,0.1-1.3
		c-2-0.3-4.1-1-6.1-0.8c-22.2,1.7-44.1-1-66.1-2.7c-10.9-0.9-21.9-1.2-32.9-1.9c-5.8-0.4-11.6-1-17.4-1.5c-1-0.1-2-0.5-2.9-0.8
		c0.1-0.5,0.1-1,0.2-1.5c37.1,1.1,74.3,2.2,111.4,3.3c-10.9-5.8-22.4-9.2-34.6-9.8c-9.5-0.5-19,0.3-28.4-0.3
		c-26.5-1.6-51.3-8.3-72.3-25.8c-5.6-4.7-11.5-9-17.1-13.7c-8.6-7.2-18.7-11.3-29.6-13.6c-6.7-1.4-13.4-1.2-20.4,0.3
		c0.8,1.8,1.3,3,1.7,4.1c-0.3,0.5-0.5,1-0.8,1.4c-1.9-0.9-4.9-1.3-5.5-2.7c-0.6-1.5,0.3-4.7,1.7-5.8c7.2-5.6,15.3-9.1,24.7-9.2
		c2.5,0,4.9-0.7,7.4-0.9c7.2-0.4,14.6-1.7,21.7-0.9c14.1,1.7,28.1,5,42.2,6.9c19.3,2.6,38.2,0.9,57-4.8c13.4-4.1,27.3-7.2,41.2-8.7
		c17.3-1.8,34.4,0.5,50.2,9.9c3-7.8,6-15.1,8.7-22.6c0.3-0.9-0.4-2.5-1.1-3.5c-9.6-14.6-23-24.6-39.6-29.4c-6.9-2-14.5-1.2-21.8-1.9
		c-2.8-0.3-5.6-1-8.4-1.5c0-0.5,0.1-1,0.1-1.4c0.7-0.2,1.3-0.7,1.9-0.7c6.8,0.5,13.5,1.6,20.3,1.6c21,0,37,8.9,48.7,26.1
		c0.8,1.2,1.7,2.3,3,4.1c1.8-3.9,4.6-7.3,4.6-10.7c0-3.3-2.3-7.1-4.6-9.8c-5.6-6.7-12.2-12.2-21.4-14.5c7.2-3.4,22.7,3.2,32.2,13.1
		c8.6-12.3,17.3-24.6,26-37.1c-14-13.8-31.2-22.4-50.8-24.8c-17.3-2.1-34.8-2.1-52.2-3.3c-5.3-0.4-10.5-1.7-15.7-2.5
		c0.1-0.5,0.2-1,0.3-1.5c4.6,0.5,9.1,1.4,13.7,1.3c8.9-0.1,17.9-0.5,26.8-1.2c15-1.3,29.9-2.4,45,0.7c11.9,2.4,23.1,6,32.6,13.6
		c2.6,2,4.8,4.5,7.6,7.2c0.5-6.5-4.3-9-7.5-12.1c-5.2-4.9-11.8-7.1-18.9-8c-2.1-0.3-4.2-1-6.9-1.6c7.1-6.4,18.2-3.2,32.1,7.6
		c-1.1-1.8-1.9-3.8-3.3-5.3c-15.4-16.7-31.1-33.2-46.4-50c-10.6-11.7-20.7-23.9-30.9-35.8c-1-1.2-1.9-2.4-2.9-3.7
		c0.4-0.4,0.9-0.8,1.3-1.1c25.6,27.1,51.3,54.3,76.9,81.4c0.3-0.2,0.7-0.3,1-0.5c-3.4-6.6-6.6-13.3-10.2-19.7
		c-7.9-13.8-20.6-23.4-31-35c-18.9-21.2-30.2-45.7-31.3-74.6c-0.7-17.1-4.2-33.6-15.4-47.4c-3.2-3.9-7.3-7-10.6-10.2
		c-2,1.7-3.1,3-4.4,3.4c-0.4,0.2-2.4-1.8-2.3-2.6c0.2-1.8,1.2-4.7,2.1-4.8c3.1-0.4,6.6-0.2,9.6,0.7c14.6,4.5,26.3,13.6,35.8,25
		c9.7,11.6,18.8,23.7,27.4,36.1c11.5,16.6,26,29.5,44,38.8c16.1,8.3,31.6,17.7,44.3,31.1c9.6,10.1,16.5,21.6,21.2,35.7
		c2.8-1.9,5.3-3.6,7.9-5.3l-0.1,0.1c4.3-1.5,9.3-2.3,12.8-4.9c2.3-1.6,3.4-5.9,3.6-9.2c1.8-22.4-3.2-42.5-20.6-58.2
		c-2.6-2.4-4.5-5.6-6.7-8.4c0.4-0.3,0.7-0.6,1.1-1c6.7,7,13.4,13.9,20,20.9L465.5,268.9z M744.9,741.2c2.8-2.3,5.5-4.5,8.3-6.8
		c0.2,0.2,0.5,0.5,0.7,0.7c-1.2,1.7-2.4,3.4-3.6,5.1c0.2,0.1,0.4,0.2,0.5,0.3c3.3-3.7,6.5-7.3,9.6-10.8c-5.6-0.8-10.9-1.7-16.2-2.4
		c-1.1-0.1-2.8,0-3.5,0.7c-2.5,2.7-4.7,5.8-7.4,9.2c3.6,0.5,6.4,0.7,9.1,1.3c0.9,0.2,1.5,1.5,2.2,2.4c-6.5,0-11.4,6.6-18.5,4.6
		c-1.2-0.3-3,1.1-4.5,1.8c0.6,0.5,1.2,1,1.9,1.5c4,0.4,8.6,2.2,12,0.9C739.2,748.3,741.8,744.2,744.9,741.2z M788,375.3
		c0.9,0.1,1.8,0.2,3.7,0.4c-9.6,8.1-17.6,16.9-30.2,17.6c7.5,10.3,15,20.6,22.7,30.7c0.7,1,3,1.4,4.4,1.1
		c21.7-4.8,39.7-15.5,53-33.6c2.8-3.8,4.9-8,7.4-12c0.4,0.4,0.9,0.7,1.3,1.1c-12,26.1-31,45.5-57.5,58.6c1.9,1.5,4.1,3.2,5.7,2.8
		c21.2-6.1,36.3-19.8,46.1-39c5-9.8,8.4-20.5,12.3-30.9c5.4-14.5,12.9-27.5,26.5-35.7c8.2-5,16.6-9.8,25.2-14
		c13.5-6.6,26.6-13.7,36.3-25.6c3.7-4.5,7-9.5,10.5-14.2c-3.5,1.4-5.9,3.7-8.6,5.6c-12.7,9.4-27.7,12.2-42.8,12.7
		c-18.7,0.6-36,5.5-52,14.9c-10.2,6-20.2,12.3-27.6,21.7c-5.1,6.5-9.6,13.6-15.4,19.5c-6.4,6.6-14,12-21.1,18
		c-10.5,4.4-20.9,8.7-31.2,13.1C759.9,392.4,782.2,384,788,375.3z M318.3,514.8c-0.7-0.1-1.4-0.2-2.1-0.3
		c-1.8,17.3-3.5,34.5-5.2,51.3c7.9,0.6,14.5,1.1,21.1,1.6c0,0.8,0,1.6,0,2.4c-6.7,0-13.3,0-19.9,0c-0.4,8.1,1.4,9.8,8.2,8.5
		c1.6-0.3,3.2-1.1,4.8-1.1c2.7-0.1,5.4,0.2,8.1,0.3c0,0.4-0.1,0.8-0.1,1.2c-6.8,1.3-13.7,2.6-20.5,3.9c-0.2,0.4-0.5,0.9-0.7,1.3
		c2.1,1.7,4.2,3.3,6.7,5.3c-2.2,0.2-3.9,0.4-5.6,0.5c-0.1,0.5-0.2,1-0.2,1.4c5.3,4.2,12.7,0,19.6,3.7c-5.4,1.3-9.6,2.3-13.6,3.3
		c-0.9,5.7,2.1,6.9,6.9,6.4c2.9-0.3,6-0.1,8.9-0.1c0,0.5,0.1,1,0.1,1.5c-4.6,0.7-9.2,1.4-14.4,2.3c2.6,8.1-0.1,17.6,9.7,23
		c-1.8,0.8-3,1.3-4.2,1.8c-0.1,0.5-0.1,0.9-0.2,1.4c5.5,1,10.9,2.1,16.4,3.1c0,0.6-0.1,1.2-0.1,1.7c-4.6,0-9.2,0-13.6,0
		c0,10.4,5.6,13.3,15,11.8c-0.2,0.7-0.4,1.4-0.6,2.1c-3.2,0.6-6.3,1.3-10,2c2.5,6,4.9,11.6,7.2,17.3c1.1,2.7,2.3,4.1,5.7,4.3
		c4,0.3,8,2,12,3.2c-0.1,0.4-0.1,0.8-0.2,1.3c-4.4,0-8.8,0-13.6,0c2.1,6.5,8.5,3.6,12.7,7.2c-3.4,0.3-5.9,0.5-9.4,0.7
		c4.5,7.5,8.5,14.5,12.9,21.2c1,1.6,3.5,2.7,5.4,3.1c4.8,1,9.7,1.4,14.5,2.1c-0.1,0.5-0.1,1-0.2,1.5c-3.4,0.3-6.8,0.4-10.2,0.8
		c-4.2,0.5-5.4,2.8-2.8,5.9c6.9,8.1,14.1,16,21.3,23.8c1.1,1.2,3,1.5,4.5,2.3c0.1-0.3,0.3-0.6,0.4-0.9c-0.8-1.1-1.5-2.3-2.2-3.2
		c7.2-1.3,14.2-4.6,20.9,1.6c-5.1,0-10.2,0-15.4,0c0,0.6,0,1.1-0.1,1.7c2.9,0.3,5.9,0.6,9.3,1c-1.6,1.4-2.7,2.4-3.9,3.4
		c21.4,18.2,44.5,33,70.9,43.5c-1.3,0.8-1.6,1.1-1.8,1.1c-0.6,0-1.3-0.1-1.9-0.3c-25.9-9.6-49.1-23.4-69.2-42.4
		c-1.1-1-2.6-1.6-4-2.3c-0.3,0.5-0.6,1-0.9,1.4c9.3,7.2,18.2,15,27.9,21.6c28.1,18.9,58.4,32.8,91.9,38.9
		c14.3,2.6,28.9,4.1,43.4,5.4c14.5,1.3,28.8-0.8,42.9-4.8c1.5-0.4,3.2-0.2,4.8,0.1c1.1,0.2,2.2,1.5,3.2,1.3
		c23.1-4.2,45.4-11.1,66.6-21c4.3-2,8.2-5,12.8-7.8c-4.9-0.9-8.8-1.6-12.6-2.2c0-0.5,0.1-0.9,0.1-1.4c5.8,0,11.6,0,17.4,0
		c0-0.2,0-0.5,0.1-0.7c-2.7-0.4-5.5-0.8-8.2-1.2c-0.1-0.6-0.3-1.2-0.4-1.8c14.1,1.5,23.8-5.7,33-15.5c-5.8,0-11.1,0-16.4,0
		c-0.1-0.7-0.1-1.4-0.2-2c8.7,0.5,17.1,0,24.5-5.1c-2.1-0.5-4.2-1-6.3-1.5c0-0.6,0-1.1,0.1-1.7c4-0.3,8-0.5,12-0.8
		c0-0.5-0.1-1.1-0.1-1.6c-3.4,0.2-7-0.1-10.2,0.8c-3.1,0.9-5.8,3.2-8.6,5c-0.2-0.2-0.4-0.4-0.6-0.6c4.7-5.3,9.5-10.6,15.1-16.8
		c-4.1,0-7.3,0-10.4,0c0-0.5-0.1-1.1-0.1-1.6c3.5-0.6,6.9-1.2,10.4-1.9c1.4-0.3,3.4-0.2,4.1-1.1c5.4-6.6,10.6-13.4,16.1-20.3
		c-4.3-0.9-7.9-1.7-11.4-2.4c0.1-0.4,0.1-0.8,0.2-1.2c2.9-0.2,5.8-0.4,8.7-0.7c2.6-0.3,6.2,1.5,6.9-3c-1.5-0.4-2.8-0.7-4.1-1
		c0-0.3,0-0.7-0.1-1c2.6-0.6,5.2-1.3,7.9-1.9c0-0.6-0.1-1.2-0.1-1.8c-5.2,0-10.4,0-15.6,0c0-0.6,0-1.2-0.1-1.8
		c5.1-0.8,10.3-2.2,15.4-2.2c2.6,0,3.9-0.2,5-2.4c5.5-11,11.1-21.9,16.6-32.9c0.4-0.8,0.5-1.8,0.8-3c-4.8-0.3-9.3-0.5-13.7-0.7
		c0-0.5,0-1,0-1.4c4.4-0.5,8.8-0.9,13.1-1.7c1.6-0.3,3.8-1.6,4.3-2.9c3.7-10.3,7.1-20.7,10.4-31.1c1.4-4.5,2.4-9.2,3.6-13.8
		c0.5,0.1,0.9,0.2,1.4,0.3c-0.9,5.1-1.7,10.2-2.7,16c1.9,0.4,4,0.9,7,1.6c1.5-7.6,2.9-14.8,4.3-22c-4-0.5-6.7-0.8-9.5-1.1
		c0-0.5-0.1-1-0.1-1.5c2.5-0.7,5-1.1,7.3-2.1c1.3-0.5,3.2-1.7,3.4-2.8c0.9-7.9,1.7-15.9,2-23.8c0.1-1.3-1.7-3.2-3-3.8
		c-2.2-1.1-4.7-1.4-7.1-2c0-0.5,0.1-0.9,0.1-1.4c1.8-0.2,3.7-0.8,5.5-0.6c5.9,0.4,6,0.3,5.2-5.5c-3.7-0.6-7.2-1.3-10.8-1.9
		c0-0.8-0.1-1.5-0.1-2.3c6.1,2.6,11.8,4,12.4-6.5c1,3.3,1.4,4.6,1.7,6c5.9-0.8,5.9-0.8,4.7-5.4c-1.8-0.7-3.3-1.3-4.9-1.9
		c0.1-0.4,0.2-0.7,0.3-1.1c1.6-0.2,3.1-0.5,4.8-0.7c-0.4-4.7-3.7-3-6-3.3c-2.6-0.3-5.2-0.4-7.8-0.6c0-0.6,0-1.3,0-1.9
		c4.2-0.9,8.4-1.8,12.8-2.7c-0.4-2.2-0.7-4.1-1-5.9c-5.5-1.7-11.3,2.2-16.3-1.9c5.1-0.7,10.3-1.5,16.1-2.3
		c-2.7-8.5-0.5-17.8-9.8-23.3c1.7-0.7,2.8-1.1,3.9-1.5c0.1-0.5,0.1-1,0.2-1.5c-4.7-0.8-9.3-1.6-14.5-2.5c1.4,7.6,2.6,14.6,3.9,21.8
		c4.3,0.5,8.6,0.9,12.8,1.4c0,0.7-0.1,1.3-0.1,2c-11.3,0-22.6,0-34.6,0c5.7-5.4,13-2.6,19.4-4.2c-0.7-2.4-1.4-4.4-1.8-6.5
		c-1.4-7.4-1.4-7.4-8.3-7.2c-0.4,0-0.7-0.4-2.4-1.4c3.3-0.8,5.5-1.4,8.7-2.2c-4.6-12.5-9.2-24.9-14-37.2c-0.3-0.8-2.3-1.4-3.5-1.4
		c-4.5-0.2-9-0.1-13.5-0.1c-0.1-0.5-0.1-1.1-0.2-1.6c4.7-0.8,9.5-1.6,14.2-2.4c-1.7-3.6-3.4-7.5-5.4-11.2c-2.3-4.2-4.8-8.3-7.3-12.5
		c0.7-0.6,1.3-1.2,2-1.9c0.4,1.2,0.6,2.6,1.3,3.6c3.2,5.1,6.4,10.1,9.7,15c0.7,1,1.9,2.3,2.8,2.3c3.8-0.1,7.6-0.6,12.3-1
		c-3.7-6.6-6.8-12-9.8-17.5c-1.4-2.6-3.3-3.6-6.4-3.4c-3.6,0.2-7.1-0.6-10.7-0.9c0-0.6,0.1-1.3,0.1-1.9c4,0,7.9,0,11.9,0
		c0.2-0.5,0.4-0.9,0.7-1.4c-3.1-3.2-6.2-6.4-9.6-9.9c1.2-0.4,3.1-1,5.7-1.9c-5.2-6.4-10.4-12.6-15.4-18.9c-3.9-4.9-7.7-8.5-15.1-8.3
		c-7,0.2-14.7-3.1-17.5-9.7c6.4,4.6,12.7,7.6,21.1,5.6c-7-6.4-13.4-12.2-20-18.2c-4.3,9.1-6.5,11-10.6,9.5c9.6-10,7-13.4-2.1-18.1
		c0,3.3,0,6.7,0,10c-0.6,0.3-1.2,0.6-1.7,0.9c-1.1-11.2-7.4-17.5-18.4-19.6c2-1.1,3-1.6,4.5-2.4c-7.2-3.8-13.9-7.1-20.3-10.9
		c-4.6-2.7-8.5-2.8-13.3-0.1c-7.1,4-14.5,2.9-23.1-1.1c8-1.4,14.7-2.5,21.4-3.7c0-0.5,0-1-0.1-1.6c-3.1-1.2-6.2-2.5-10.6-4.2
		c1.9,2,2.7,2.9,3.6,3.8c-0.2,0.4-0.4,0.8-0.6,1.2c-17.8-7.6-35.7-14.5-56-16.4c3.6,9.4,7,18,10.3,26.6c-2.4-1.5-4.5-3.4-5.7-5.8
		c-2.6-5.2-4.8-10.6-6.9-16c-2.5-6.2-4.5-7.4-11-6c2.1,0.5,4.2,1,6.3,1.6c-6.1,0.5-11.8,0.4-17.6,0.5c-13.9,0.3-27.8,0.1-41.7,1.3
		c-11,1-21.8,4-32.7,5.8c-2.9,0.5-6.2-0.7-8.9,0.1c-19.2,5.9-37.5,14-54.7,24.5c-6.7,4.1-13.2,8.5-19.8,12.8
		c0.2,0.4,0.4,0.7,0.6,1.1c1.2-0.6,2.4-1.2,3.6-1.9c4.2-2.4,8.4-4.8,12.6-7.1c1.5-0.8,3-1.6,4.5-2.2c2.3-0.9,4.6-2.1,6.9-2.1
		c3.2,0,6.4,1,10,1.6c-4,5.1-9-0.3-13.1,1.8c1.1,0.7,2.2,1.3,4.6,2.9c-3.4,0.4-5.3,0.4-7.1,0.8c-3.5,0.6-7.4,0.6-10.5,2.3
		c-6,3.2-11.5,7.4-17.1,11.2c-0.8,0.5-1.4,1.3-1.8,1.7c5.8,0,11.5,0,17.2,0c0.1,0.7,0.1,1.3,0.2,2c-8.6-0.3-16.8,1.4-24.6,4.4
		c2.6,0.9,5.2,1.8,7.8,2.6c-0.1,0.5-0.2,1-0.3,1.6c-4.5,0-8.9,0-13.4,0c0,0.5,0,1,0,1.5c6,0,12.1,0,18.1,0c0,0.5,0,0.9,0,1.4
		c-7.1,1.9-14.1,5.1-21.3,0.3c-2.4,2.3-4.5,4.4-6.7,6.4c-3.5,3.2-7.9,5.8-10.6,9.6c-3.8,5.4-6.3,11.7-9.5,17.8
		c2.3,0.1,4.6,0.3,7,0.4c0.1,0.5,0.1,1.1,0.2,1.6c-2.2,0.4-4.4,0.8-6.6,1.3c-1.6,0.3-3.9,0.2-4.6,1.1c-4.2,6-8.1,12.3-12.6,19.3
		c6,0.4,11,0.8,16.1,1.1c0,0.8-0.1,1.7-0.1,2.5c-4.8,0-9.7-0.1-14.5,0.1c-1.5,0.1-3.7,0.6-4.2,1.6c-3.1,5.9-5.8,12.1-8.6,18.2
		c3,1.1,5.2,1.9,8.2,3c-4.3,0.8-8.2,0.5-10.2,2.3c-2.3,2.1-2.8,6.2-4.1,9.5c2.1,0.5,3.9,0.9,5.6,1.3c0,0.4,0,0.8,0,1.2
		c-2.4,0.7-4.8,1.5-7.4,2.3c3.2,0.9,5.9,1.6,8.6,2.4c0,0.6,0.1,1.3,0.1,1.9c-6,0.2-13.7-2.1-12.7,8c2.3,0.9,5,2,7.7,3.1
		c-3.4,1.1-7.4-0.1-9.2,1.4c-2.1,1.7-2.3,5.8-3.2,8.8c2.5,1.2,4.4,2.1,6.2,3.1c-0.1,0.4-0.3,0.7-0.4,1.1c-2.1,0-4.2,0-6.6,0
		c-0.7,4.7-1.3,9.1-2,13.5c-0.6,3.3,0.8,4.6,4,4.5c3.6-0.1,7.2,0,10.8,0c0,0.7,0,1.4,0,2.1c-5.8,0-11.7,0-17.9,0
		C316.7,527.1,317.5,520.9,318.3,514.8z M371.4,738.9c-6.6-8.6-13.1-16.8-19.1-25.3c-5.5-7.8-5.3-8-14.3-5.5
		c-23.3,6.6-41.2,20.1-53,41.5c-0.4,0.8-0.5,1.8-0.8,2.7c-0.7-0.7-1.3-1.3-2-2c12.3-25.4,31-44.6,57.3-56.9c-1-1.7-1.9-3.1-2.7-4.4
		c-20.3,4.9-35.5,16.6-45.6,33.8c-6.5,11.2-10.8,23.7-15.4,35.9c-5.2,13.6-11.6,26.2-24,34.6c-8,5.3-16.3,10.2-24.9,14.5
		c-14.3,7.1-28.7,14-39.1,26.8c-4.1,5-7.8,10.3-11.7,15.5c4.8-2.5,8.3-6,12.4-8.7c12.5-8.2,27.1-10,41.4-10.9
		c11.6-0.7,22.8-2,33.4-6.5c21.5-9,40.6-21.1,53.7-41.2c9.7-14.9,23.5-25.1,39.9-31.7c6.3-2.5,12.6-4.8,18.9-7.2
		c-0.2-0.7-0.5-1.3-0.7-2c-12.3,1.5-23.5,6.2-33.3,14.6C349.8,747.6,358.2,739.4,371.4,738.9z M442.9,336.7
		c-4.7-19.5-15.8-34.4-32.3-44.4c-11.2-6.8-23.8-11.4-36.2-16.1c-13.5-5.1-26.2-11.1-34.7-23.1c-5.4-7.5-10-15.6-14.4-23.8
		c-6.8-12.7-11.8-26.4-22.5-36.7c-6.2-6-12.6-11.8-20.6-15.3c1.5,2.3,3.4,4.2,5,6.3c9.5,12,12.5,26.3,13.7,41
		c1.1,14.3,2.2,28.4,8.2,41.8c8.8,19.6,20.3,37,38.3,49.3c15.4,10.5,26.8,24.2,33.5,41.6c2.4,6.2,4.8,12.3,7.2,18.5
		c0.5-0.2,0.9-0.3,1.4-0.5c0.1-13.2-6.7-23.8-14.4-34.2c8.6,9,18.4,17,17.9,30.3c8.7-6.6,17.1-13.3,25.9-19.6
		c6.7-4.9,6.9-4.7,5.1-12.7c-0.6-2.6-1.3-5.1-2.2-7.6c-7.3-19.2-18.9-35-37.2-45.2c-1.6-0.9-3-2.1-4.5-3.1c0.3-0.4,0.7-0.7,1-1.1
		c25.7,12.2,45.1,31,57.3,57.2C440,338.4,441.4,337.6,442.9,336.7z M693.9,792.5c-3.3,1.2-4.7,2.4-3.5,6.5
		c4.8,16.4,14.9,28.6,28.2,38.8c12.1,9.3,26.6,13.2,40.6,18.4c13,4.8,25.1,10.8,33.2,22.5c5.6,8,10.5,16.5,15.2,25.1
		c6.5,11.9,11.2,24.8,21.2,34.6c6.6,6.5,13.3,12.7,22.7,17.3c-12.6-13.2-18.5-28-19.8-47.5c-0.8-10.9-1.7-22.1-5-32.4
		c-7.7-23.8-20.2-45-41.6-59.2c-15.8-10.5-26.6-24.8-33.9-42c-2.6-6-4.5-12.3-6.7-18.5c-5.3,2-0.6,4.6-0.6,6.8
		c0.2,9,4.9,16,10.3,22.7c1.3,1.6,2.1,3.5,3.2,5.3c-0.4,0.2-0.8,0.4-1.2,0.6c-7.2-9.5-17.7-17.1-16.6-30.6
		c-10.3,7.6-20.7,15.1-31,22.9c-1,0.7-1.6,2.9-1.3,4.2c4,21.9,15.1,39.4,32.7,52.9c3.8,2.9,8,5.3,12,7.9c-0.4,0.4-0.7,0.8-1.1,1.2
		C725.3,837.3,705.9,818.8,693.9,792.5z M897.5,634.3c0.1,0.6,0.2,1.1,0.3,1.7c-13,4.4-26.3,7.1-40.3,7.2c-14,0.1-27.6-1.9-40.7-7.4
		c-0.6,2.2-1,3.7-1.4,5.3c15.3,9,31.4,11.8,48.6,9.7c15-1.8,28-8.7,41.4-14.9c10.8-5.1,22-10.5,34.1-9.4c11.4,1.1,22.9,3.5,33.9,6.9
		c17.6,5.5,34.8,12.2,53.7,9.7c5-0.6,9.9-1.8,14.8-2.7c-4.1-1.2-8.2-1.2-12-2c-14.1-2.8-25.8-10.4-36.3-19.8
		c-12.6-11.4-26.2-20.6-42.6-25.6c-18.7-5.7-37.4-8.2-56.9-4.1c-12.1,2.5-24.6,2.3-36.5-1.8c-10.6-3.7-20.9-8-31.3-12
		c-0.3,2.1,6.9,8,14.2,10.2c6.2,1.9,12.6,3,18.9,4.4c-0.1,0.4-0.2,0.8-0.3,1.3c-11.5-1.1-23.5-0.3-32.9-9.2
		c-1.8,11.9-3.3,23.5-5.5,35c-0.8,4,0.1,6,3.4,7.9c20.9,12.1,42.8,17.5,66.7,10.9C893.2,634.9,895.4,634.7,897.5,634.3z
		 M496.2,816.7c-5.2-2-5.3-2.1-7.1,1.7c-11.5,22.7-10.9,45.7-1.2,68.8c3.9,9.3,8.6,18.3,12.6,27.6c7.8,18,5.6,35.9-0.3,54
		c-5.7,17.6-13.7,34.7-11.6,54c0.7,6.2,1.6,12.4,2.4,18.6c2-5.7,2.6-11.3,4-16.7c3.1-12.4,10.9-22.2,18.9-31.8
		c7.4-9,15.9-17.2,19.7-28.5c3.9-11.4,7.8-22.8,10.6-34.5c1.5-6.3,1.2-13.2,0.8-19.8c-0.6-8.8-2.4-17.4-3-26.2
		c-1.1-15.8,3.2-30.6,9.7-44.8c1.9-4.2,4-8.5,5.9-12.7c-0.5-0.2-1-0.4-1.4-0.6c-9.6,8.9-11.7,21.3-14.3,33.5
		c0.1-12.2-0.4-24.4,9.3-33.7c-5.8-0.5-11.2-0.9-16.7-1.6c-5.6-0.7-11.1-1.8-16.7-2.7c-7.8-1.3-8.5-1.1-12.3,5.9
		c-11.6,21.5-15.3,44-8,67.8c0.2,0.7-0.3,1.6-0.7,3.7c-5.6-11.9-7-23.4-7.8-34.9C488.1,847.8,489.4,831.9,496.2,816.7z M91,492.2
		c2.4,0.2,4.9,0.3,7.3,0.7c15.1,2.3,27.7,9.8,39.1,19.5c10.4,8.8,20.6,17.6,33.6,22.8c20.4,8.2,41.4,12.7,63.2,8.5
		c18.6-3.5,36.3-1.6,53.5,5.7c6,2.6,12,5.3,18,7.9c0.2-0.5,0.4-0.9,0.6-1.4c-9-9.5-21.4-11.8-33.8-14.2c12,0.1,24.1-0.5,33.4,8.7
		c1.8-12.5,3.4-24.8,5.4-37c0.5-2.9-0.4-4.2-2.6-5.5c-22.7-13.9-46.7-18.1-72.5-10.3c-0.6,0.2-1.3-0.3-2-0.5
		c27-10.5,54.1-11.7,81.3-1.1c0.5-1.7,0.9-3.2,1.3-4.7c-19-12.5-40.7-13.2-60.9-7.4c-11,3.2-21.6,8.4-31.9,13.5
		c-20.1,10.1-40.3,9.8-61.2,2.5c-14.8-5.1-29.5-11.3-45.6-11.7C108.3,488.1,99.5,488.6,91,492.2z M643.7,108.8
		c-5.2,5.5-9.7,9.8-13.7,14.6c-4.2,5.1-7.5,11.1-12,15.9c-13.2,13.9-22.1,30-26.9,48.6c-4.1,15.8-5.6,31.7-2.4,47.9
		c3.6,17.6,1.3,34.6-5.8,51.1c-2.7,6.3-5.6,12.6-8.3,18.8c0.5,0.3,1.1,0.7,1.6,1c3.2-5,7.6-9.2,9.3-15.1c1.8-6,2.8-12.3,4.1-18.4
		c1.4,12.2,0.6,23.8-8.2,32.7c12.3,1.8,24.9,3.5,37.4,5.5c3.5,0.6,4.8-1.7,6.1-3.9c13-21.9,17-45.1,10.2-69.8
		c-0.3-1-0.2-2.1-0.3-3.2c0.5,0,1,0,1.6-0.1c8.9,26.9,10.3,54-0.2,81.1c4.2,2.1,5.6-0.9,7-3.6c11.9-22,10.8-44.3,1.4-66.7
		c-4.1-9.8-9-19.2-13-29c-4.3-10.6-7.3-21.6-4.4-33c3.4-13.8,7.6-27.4,11.8-41C642.1,131.9,644.5,121.5,643.7,108.8z M800.2,651.1
		c0.1-0.2,0.1-0.4,0.2-0.6c-3.2-0.5-6.4-1-9.6-1.5c0-0.5-0.1-1-0.1-1.5c5.5-1.4,14.2,2.3,13.9-9.4c-2.7,0.4-5.2,0.9-7.6,1.3
		c-0.4-1.2-0.9-3-1.1-3.6c1.4-2.5,2.4-4.3,3.4-6.3c-5.1-2.2-7.6-1.5-8.5,3.6c-0.7,3.8-2.6,7.5-3.8,11.2c-1.5,4.4-3,8.8-4.5,13.2
		c2.6,0.6,4.5,1.1,6.3,1.5c0,0.5-0.1,1-0.1,1.6c-1.5,0.2-3.1,0.1-4.6,0.6c-1.6,0.6-3.7,1.3-4.3,2.5c-4.1,8.6-7.8,17.4-11.4,25.7
		c11.2,4.1,16.5-2.2,19.9-11.7c0.8-2.3,2.1-4.4,3.5-7.2c-3-0.9-5.5-1.7-9.4-2.9c5-0.8,9.1-0.4,11.4-2.2c2.6-2.1,3.5-6.3,5.3-10
		c-3-0.3-5.1-0.6-7.2-0.8c0-0.5-0.1-1-0.1-1.5C794.7,652.5,797.5,651.8,800.2,651.1z M558.1,931c0.8-26.8,1.6-52.4,2.3-78
		c-1.1,0.2-1.4,0.6-1.5,1c-7.3,17.1-9.7,34.9-9.3,53.5C549.8,916.1,551.9,923.3,558.1,931z M763,706.4c0.2,0.5,0.4,1.1,0.5,1.6
		c-11.1-0.1-12.7,10-19.2,15.5c11.5,4.9,20,3,24.5-5.2c-4.4-0.4-8.6-0.8-12.8-1.2c-0.1-0.5-0.1-1-0.2-1.6c2.6-0.3,5.4-1.5,7.7-0.9
		c8.2,1.9,11.6-3.1,14.8-9c0.6-1.1,1.2-2.2,1.7-2.9c-2-1.2-3.8-2.3-5.5-3.4c8.7-0.3,8.7-0.3,10.2-4.7c-2.7-0.4-5.6-0.7-8.3-1.4
		c-8.6-1.9-12.1-0.1-14.2,7.5c2.9,0.4,5.8,0.8,8.7,1.1c0,0.6,0.1,1.2,0.1,1.8c-1.9,0.4-3.8,1-5.7,1.1c-2.1,0.1-4.2-0.4-6.3-0.7
		c0,0.4-0.1,0.8-0.1,1.3C760.2,705.8,761.6,706.1,763,706.4z M779.2,459.6c1.6,3.5,4,6.9,4.8,10.6c2,9.2,7.2,12.8,16.4,10.8
		c0.3-0.1,0.5-0.4,1.6-1.3c-2.2-1.5-4-2.7-6-4.1c0.9-0.7,1.9-1.4,3-2.2c-2.5-5.6-4.9-11-7.2-16.1
		C787.5,458.2,783.6,458.9,779.2,459.6z M225.5,491.2c-24.7,9.6-49.5,5.7-75.2,0.8C168.5,504.7,208.7,504.1,225.5,491.2z
		 M980.1,638.8c-24.3-9.3-48.6-13.4-72.6,1.3C931.5,631.4,955.8,634.5,980.1,638.8z M860.3,376.6c11.2-23.4,30.8-38.6,51.6-52.7
		C888.2,335.2,866.7,348.5,860.3,376.6z M754.6,859.8c23.8,10.6,38.7,30.4,52.9,51C796.8,886.6,782.6,865.9,754.6,859.8z M492,907.8
		c8.6,24,5.3,48.1,1,72.2C502.5,955.8,506.9,931.6,492,907.8z M326.4,223.8c10.4,24.4,26.2,43.3,53.8,49.3
		C356.1,263.3,340.8,244.1,326.4,223.8z M221.3,807.1c25.4-9.1,50.9-35.4,50.1-51.7C260.6,778.7,241.4,793.3,221.3,807.1z
		 M641,225.8c-9.7-24.9-6.5-50.1-1.5-75.2C629.6,175.8,625.5,200.9,641,225.8z M826.6,561.8c-0.5,0.3-0.9,0.7-1.4,1
		c1,2.1,1.4,5.2,3,6.1c16.1,8.6,32.8,15.9,51.4,17.1c1.7,0.1,3.4-0.3,5.1-0.5C863.1,582.8,843.8,575.1,826.6,561.8z M562,305.5
		c4.6,1.2,6.8,0.2,8.3-3.6c3.8-9.5,8.3-18.7,11.9-28.3c3.5-9.4,4.7-19.2,3.1-29.3C583.5,266.8,576.3,287.2,562,305.5z M569.6,825.2
		c-2.6,1-6,1.3-6.7,2.8c-6.9,13.8-13.7,27.7-15.9,43.2c-0.6,4.5-0.1,9.2-0.1,11.8c2.1-8.4,3.8-19,7.6-28.7
		C558.2,844.5,564.1,835.5,569.6,825.2z M777.3,805.7c0.4-0.4,0.8-0.7,1.2-1.1c-14.2-16.6-22.7-35.7-26-57.6c-1.6,2-3.8,4.7-3.2,6.2
		c4.9,12.4,9.8,24.9,15.8,36.8C768,795.8,773.2,800.5,777.3,805.7z M305.5,569.9c1.3-4.1,0.2-6.4-3.2-8c-8-3.6-15.8-7.9-24-10.8
		c-9.6-3.3-19.6-6-30.2-4.4C269.2,549.4,288.5,556.6,305.5,569.9z M384.3,752.9c0.2-0.6,0.4-1.2,0.6-1.8c-2.4-0.7-5.2-2.7-7-2
		c-10.5,3.8-21,7.9-31.2,12.7c-7.6,3.6-14.5,8.7-19.5,15.9C344,764.2,362.9,755.7,384.3,752.9z M379.2,384.7
		c4.7-3.9,4.8-4.4,3.2-8.8c-1.1-3.1-2.2-6.3-3.4-9.4c-4.8-12.9-10.5-25.4-20-35.7c-1.3-1.4-2.9-2.5-4.3-3.7
		C368.1,344,376.1,362.9,379.2,384.7z M804.6,356.7c-0.3-0.2-0.5-0.5-0.8-0.7c-8.8,4.8-17.3,10.4-26.5,14.3
		c-9.3,4-19.3,6.4-29.1,9.5c1.4,2.4,3.2,4,6.8,2.5c10.4-4.3,21.1-7.9,31.2-12.9C792.8,366.3,798.5,361.1,804.6,356.7z M819.3,762.6
		c-21.2-3.7-41.5-9.1-56.9-25.6c-4.7,2.9-1.5,4.9,0.7,6.6C779.5,756.8,798.8,761.5,819.3,762.6z M604,880.5
		c-0.7-1.1-1.4-2.1-2.1-3.2c-6.3-9.8-12.7-19.5-15.4-30.9c-1.4-5.9-1.7-12.1-2.7-18.1c-0.2-1.1-1.4-2.1-2.1-3.1
		c-0.6,1-1.4,1.9-1.9,2.9c-0.3,0.5-0.1,1.3,0,2C581.4,849.9,590.5,866.3,604,880.5z M762.6,313.6c-3.3,21.1-9.4,40.9-25.4,56.1
		c1.6,2.9,3.3,3.1,5.1,0.7c2.7-3.6,5.7-7,7.9-10.8C758.3,345.4,762.6,330.1,762.6,313.6z M812.2,569.4c-1.1,10.6-2.1,20.6-3.1,30.8
		c1.7,0.3,3.2,0.6,5.3,1.1c1.1-11.1,2.2-21.7,3.3-32.8C815.5,568.8,813.9,569.1,812.2,569.4z M395,762.1c-1.9-3.4-3.4-3-5.5-0.7
		c-9.2,10.4-14.1,22.8-17.5,35.9c-1.4,5.5-1.9,11.2-2.8,16.8c0.4,0.1,0.9,0.2,1.3,0.3C373.6,794.7,379.9,776.5,395,762.1z
		 M885.1,526.3c-0.3-0.4-0.7-0.8-1-1.2c-0.7,0.4-1.4,0.8-2,1.3c-14.7,12.1-31,20.2-50.3,21.7c-1.9,0.1-5.7-1.6-5.6,2.6
		c0,0.5,4.2,1.4,6.4,1.2c13.3-0.9,24.8-6.7,35.8-13.6C874.2,534.8,879.6,530.4,885.1,526.3z M306.9,583.2c0.1-0.5,0.2-1.1,0.3-1.6
		c-1.3-0.7-2.6-2.1-3.9-2c-3.6,0.1-7.3,0.4-10.8,1.3c-14.7,3.6-27.7,10.8-39.4,20.3c-1.3,1-2.5,2.1-3.8,3.2
		C266.6,592.1,285.1,583.5,306.9,583.2z M314.1,369.8c3.9,0.7,7.8,1.4,11.7,2.2c15.9,3.2,30.4,9.3,42.2,20.9
		c0.8,0.8,2.8,0.4,4.2,0.5c0.1-0.6,0.2-1.3,0.3-1.9C356.3,376,336.1,370.7,314.1,369.8z M529.1,251.8c11.7,16.4,19.3,34.2,20.5,54.9
		c1.4-1,2.9-2.5,2.7-3.6c-1.2-7-2.2-14.1-4.4-20.8C543.9,270.9,537.8,260.6,529.1,251.8z M802.9,484.5c-4.6,0-8.6,0-12.7,0
		c1.5,11.3,4.4,13.3,16.2,10.9C805.2,491.7,804.1,488,802.9,484.5z M804.4,620.4c0.4,0.5,0.7,1,1.1,1.5c1.7-0.6,4.7-0.9,5-2
		c1.5-5,2.4-10.2,3.5-15.6c-2.4,0-4.1,0-6,0c-0.5,2.8-0.8,5.5-1.3,8C806,615.1,805.1,617.8,804.4,620.4z M800.5,634.6
		c6.5,1.2,7.5-0.1,8.2-10.1c-1.8-0.1-3.6-0.2-4.6-0.3c-0.8,2.2-1.3,3.5-1.7,4.9C801.8,630.9,801.2,632.7,800.5,634.6z M775.3,420.7
		c-0.5,0.3-0.9,0.6-1.4,0.9c6.5,10.8,13.1,21.6,19.6,32.3c0.4-0.3,0.8-0.5,1.2-0.8C788.2,442.3,781.7,431.5,775.3,420.7z M631.3,314
		c2.4-8.4,4.6-16.1,6.8-23.8c-0.2-0.1-0.4-0.1-0.7-0.2c-3.3,7.6-6.6,15.2-10,23.1C628.6,313.3,629.8,313.6,631.3,314z M797.2,671.6
		c-0.5-0.3-1-0.6-1.5-0.9c-3.8,6.5-7.6,13-11.4,19.5c0.7,0.4,1.4,0.9,2.2,1.3C791.2,685.7,793.9,678.4,797.2,671.6z M818.3,627
		c0.5,1.7,0.5,3.8,1.2,4c7,2.4,14,4.5,21,6.7c0.1-0.3,0.2-0.6,0.3-1C833.8,633.7,826.7,630.7,818.3,627z M291.6,494.2
		c-0.1,0.3-0.2,0.5-0.2,0.8c7.2,3.1,14.3,6.3,22.7,9.9c-0.7-1.9-0.9-4.1-1.7-4.3C305.6,498.2,298.6,496.3,291.6,494.2z M788,430.8
		c1.4,0.8,3,2.4,3.6,2.1c6.7-3.4,13.3-7,20-10.6c-0.2-0.3-0.3-0.5-0.5-0.8C803.8,424.4,796.5,427.4,788,430.8z M431.1,344.2
		c0.9-1.5,2.3-3,2-3.5c-3.2-6.3-6.6-12.4-9.9-18.6c-0.3,0.2-0.5,0.3-0.8,0.5C425.1,329.4,427.9,336.2,431.1,344.2z M701.4,787.6
		c-1,1.3-2.6,2.7-2.3,3.3c2.8,5.8,5.8,11.4,8.8,17.1c0.4-0.2,0.8-0.4,1.1-0.6C706.6,801.1,704.2,794.9,701.4,787.6z M344.2,701.1
		c-1.1-1.1-2-2.5-2.3-2.4c-6.5,3-12.9,6.2-19.3,9.3c0.2,0.4,0.4,0.8,0.5,1.2C329.9,706.6,336.7,704,344.2,701.1z M495.4,836.3
		c0.4,0.1,0.8,0.3,1.2,0.4c2.6-5.8,5.3-11.6,8.1-17.7c-1.1-0.3-2.2-0.7-3.5-1.1C499.2,824.3,497.3,830.3,495.4,836.3z M637.4,108.5
		c6.2-6.1,6.8-10.2,2.7-17.1C639.2,97,638.4,102.6,637.4,108.5z M317.4,607.5c-0.7,0.1-1.4,0.3-2.1,0.4c1.4,6.7,2.8,13.5,4.2,20.2
		c0.6-0.1,1.3-0.2,1.9-0.4C320.1,621,318.7,614.3,317.4,607.5z M812.1,558c0,2.9,0,4.9,0,7.7c2.1-0.5,4.5-0.4,5.1-1.5
		c0.8-1.2,0.6-3.8-0.2-5C816.3,558.2,814,558.4,812.1,558z"/>
	<path d="M375.6,942.3c-18.7,6.9-44.5,35.6-40.1,56.3c1.7,1.6,3.4,2.6,4.1,4.1c0.3,0.5-1.5,3-2.5,3.1c-2,0.1-4.7-0.2-5.9-1.4
		c-4.7-5.3-6.5-12-6.2-18.9c0.3-6.5,1.8-12.9,2.7-19.3c0.5,0,1.1,0.1,1.6,0.1c0.4,8.7,0.8,17.4,1.2,26c0.3,0,0.6,0,0.9,0
		c1.5-5.7,2.8-11.5,4.4-17.2c3.2-11,10.3-19.4,19.4-25.8c9.4-6.5,19.2-12.5,29.2-17.9c17.5-9.2,28-23.7,34-42
		c0.4,0.1,0.8,0.1,1.2,0.2c-0.4,2.2-0.6,4.5-1.3,6.6c-5.6,17.1-15.8,30.8-31.7,39.2c-6.7,3.5-8.1,9.5-10.9,15.2
		c-4.7,9.3-9.4,18.5-14.2,27.8c-0.4,0.8-1.3,1.3-2.7,1.6C360,965.5,369.9,955,375.6,942.3z"/>
	<path d="M242,419.9c-4.1-1.3-8.3-2.2-12.2-3.8c-14.9-6.3-26.6-16.3-34-30.7c-2.9-5.5-8.1-6.9-13-9.2c-8.1-3.7-16.3-7.3-24.3-11.2
		c-2.6-1.3-4.7-3.6-6.5-6.1c14.6,1.1,25.2,10.8,38,16.7c-9.6-20.2-24.6-33.6-45.5-39.9c-3.1-0.9-6.6-0.6-9.9-0.5
		c-0.9,0-1.7,1.3-2.7,1.9c-1.3,0.7-3.3,2.1-4.1,1.7c-1.2-0.8-2.6-3.3-2.2-4.2c1.1-2.3,2.8-4.9,5-5.8c11.8-5.4,23.7-4.6,35.6,0.6
		c-8.8,0.4-17.6,0.8-26.4,1.2c0,0.5-0.1,1.1-0.1,1.6c27.9,1.3,43.4,18.9,55.2,41.4c6,11.5,11.6,23.4,22.3,31.3
		c5.9,4.4,12.8,7.6,19.2,11.2c1.9,1.1,4.1,1.7,6.2,2.5C242.3,419,242.2,419.5,242,419.9z"/>
	<path d="M434.2,164.6c7.1-20.7,7.3-40.8-3.7-60c-1.5-2.5-3.6-4.8-5.9-6.7c-1-0.8-2.9-0.4-4.4-0.7c-1.2-0.2-2.8-0.4-3.4-1.2
		c-0.5-0.8-0.4-3.1,0.3-3.4c2.2-1.3,5.2-3.4,7.2-2.9c13,3.8,21,13.3,26.7,25.1c0.1,0.2-0.2,0.6-0.3,0.9
		c-6.9-6.2-13.7-12.5-20.6-18.7c-0.3,0.3-0.5,0.5-0.8,0.8c2.9,4.1,6,8.1,8.5,12.4c6.3,10.9,8.7,22.8,6.5,35.1
		c-2.6,14.1-6.7,28-10,42c-3.4,14.5-0.5,28.3,5.7,41.5c0.7,1.5,1.5,3,2.2,4.5c-0.6,0.3-1.1,0.6-1.7,0.9c-2.4-4.9-5.3-9.7-7.3-14.9
		c-5-13.1-5.5-26.7-1.7-40c2.1-7.5-0.2-13.5-2.6-20c-2.8-7.4-5.8-14.8-8.3-22.3c-1.1-3.2-1.3-6.7-1.3-10.3
		c6.4,4.4,7.6,11.5,9.6,18.1C430.9,151.4,432.5,158,434.2,164.6z"/>
	<path d="M233.6,691.7c-2.6,1.5-5,3.1-7.7,4.4c-15.1,7.2-30.7,9.3-46.9,4.6c-5.4-1.6-10.3-0.9-15.7,1.2
		c-10.9,4.2-22.2,7.5-33.4,11.1c-0.8,0.3-1.8,0-3-0.8c11-8.9,24.9-10.1,37.6-14.2c-13-11.6-54.4-4.4-68.6,12.1
		c0.7,1.2,1.4,2.4,2.9,5c-2.9,0-5.5,0.8-6.5-0.2c-1.5-1.3-3-4.5-2.3-5.9c2.6-5.8,5.2-12,9.3-16.7c4.3-4.8,10.3-8.1,15.5-12
		c0.3,0.3,0.6,0.7,1,1c-6.1,6.8-12.1,13.7-18.3,20.7c7.9-4.2,14.8-9.1,22.5-11.8c15.2-5.2,30.5-2.8,45.5,1.7
		c7.8,2.3,15.5,4.8,23.5,6.4c15.5,3.1,29.9-0.8,43.7-7.8C233,690.8,233.3,691.2,233.6,691.7z"/>
	<path d="M792.2,130.1c1.2-1.5,2.1-4.1,3.5-4.3c1.7-0.3,4.7,0.7,5.5,2c2.3,3.8,5,8,5.1,12.1c0.3,8.2-1,16.4-1.8,24.6
		c-0.1,0.6-1,1-3,1.3c0-8.8,0-17.7,0-26.5c-0.4,0-0.9,0-1.3,0c-0.8,4.4-1.3,8.8-2.4,13.1c-4.4,17.8-16.9,28.9-31.8,37.8
		c-8.5,5.1-17.4,9.6-25.8,14.9c-13.1,8.2-20.9,20.5-25.6,35c-0.3,0.9-1.1,1.6-2.2,2.1c2.4-12.1,7.1-23.2,15.6-32
		c5-5.2,10.8-10,17-13.7c4.9-3,7.6-6.8,9.8-11.7c4.5-10,9.4-19.8,14.2-29.6c0.7-1.5,2.2-2.6,4-3.5c-1.1,14.6-10.6,25.4-17,38
		c14.5-6.2,25.3-16.2,33.3-29.4c4.5-7.5,8.4-15.2,7.3-24.3c-0.2-2-1.6-3.8-2.4-5.7C793.7,130.2,792.9,130.2,792.2,130.1z"/>
	<path d="M942.5,756.2c6.1,13.6,14.8,24,27,31.5c6.9,4.3,13.9,8.6,22.3,9c3.2,0.2,7.8,2.2,9.4-3.4c0.1-0.4,3-0.8,3.4-0.3
		c1,1.5,2.5,4,1.9,5c-1.3,2.3-3.5,4.6-5.8,5.6c-7.1,3-14.6,4.5-22.4,2.6c-3.8-0.9-7.7-1.6-11.5-2.4c0-0.4,0-0.9,0-1.3
		c8.7-0.4,17.4-0.8,26.1-1.2c0-0.6,0-1.2,0-1.8c-2.8-0.3-5.7-0.4-8.4-0.9c-21.8-3.8-34.8-18.5-44.9-36.7c-4.4-8-8.7-16-13.7-23.6
		c-7.4-11.2-18.3-18.1-30.6-22.8c-1.8-0.7-3.6-1.4-5.4-2.1c0.2-0.5,0.3-1.1,0.5-1.6c4.1,1.4,8.3,2.5,12.3,4.1
		c14.7,6,26.1,15.8,33.6,29.8c2.4,4.4,5.8,6.8,10.3,8.6c9,3.8,17.9,7.8,26.7,12c2.9,1.4,5.3,3.7,7.4,6.4
		C966,771.8,955.3,762.4,942.5,756.2z"/>
	<path d="M694.4,1022.5c-7.6-14-8.2-29-5.3-44.1c1.9-10,5.3-19.8,8.1-29.7c4.6-15.6,2-30.5-4.5-45c-0.7-1.7-1.3-3.4-1.3-5.3
		c6.2,9.1,10.6,19,11.5,30.1c0.7,9.5,0.2,18.9-2.7,28.1c-0.7,2.4-0.3,5.6,0.6,8.2c3.3,9.5,7.2,18.9,10.6,28.4
		c1.3,3.7,1.6,7.8,1.6,11.9c-6.2-4.6-7.5-11.7-9.7-18.1c-2.3-6.5-3.6-13.4-5.4-20.5c-8.6,17.6-5.9,48.9,5.3,62.7
		c2.4,3,4.4,7.9,10.1,5.1c0.3-0.2,2.7,2.2,2.5,2.8c-0.7,1.8-2.1,4.6-3.3,4.7c-3.2,0.2-6.8-0.1-9.6-1.5c-9.9-5.1-16.8-13.3-21.6-23.3
		c-0.2-0.4,0.1-0.9,0.1-2c7,7.2,12.9,15,22.7,19.5c-3.7-4.5-6.7-8.3-9.8-12.1L694.4,1022.5z"/>
	<path d="M898.7,440.2c12.5-8.1,26.1-12.3,41.1-11c6.6,0.6,13,2.4,19.5,3.5c1.3,0.2,2.9-0.2,4.2-0.7c10.3-3.8,20.5-7.7,30.7-11.4
		c2.6-0.9,5.5-1.4,8.2-1.8c0.9-0.1,2,0.7,3,1c-0.6,0.8-1,2.1-1.8,2.5c-7.1,2.7-14.2,5.5-21.4,7.8c-4.8,1.6-9.7,2.5-15.3,3.9
		c23.1,10.2,57.6,5.5,68.2-12.4c0.4-1.6,0.8-3.3,1.3-4.9c1.8,1,4.6,1.6,5.3,3.1c2.7,6.1-1.3,11.3-4.8,15.1
		c-5.8,6.4-13,11.5-19.5,17.2c-0.5-0.5-1-1-1.5-1.5c2-2,4-3.9,6-5.9c2.3-2.4,4.6-4.8,6.7-7.3c2-2.4,3.7-4.9,6-7.9
		c-5.8,3.6-10.5,7.4-15.9,9.8c-16.2,7.3-32.9,6.1-49.7,1.6c-10.2-2.7-20.4-6-30.8-7.6c-12.2-1.8-24.1,1-35.1,6.7
		c-1.3,0.7-2.7,1-4.1,1.5C898.9,441,898.8,440.6,898.7,440.2z"/>
	<path d="M327,413.8c-3.9-2.4-7.6-5.3-11.8-7.3c-9.2-4.4-19-4.3-28.8-2.6c-11.6,2-23.3,4.5-35,1.1c-14.2-4.1-25.6-12.6-34.7-24.6
		c0.9,0.3,1.9,0.5,2.5,1.1c15.4,14.5,34.2,17.7,54,15c18.4-2.5,35-0.4,49.5,11.9c1.7,1.4,3.3,3,4.9,4.6
		C327.6,413.2,327.3,413.5,327,413.8z M291.6,398.7c-16.3,0-32.5,3.4-48.7-1.2C259,405.5,275.4,401.6,291.6,398.7z"/>
	<path d="M804.9,717.9c1.2,0.7,2.6,1.2,3.7,2.1c11.5,9.4,24.6,10.7,38.5,7.8c14.7-3.1,29.2-4.4,43.3,2.7c9.8,5,18.2,11.8,24.8,20.9
		c-1-0.6-2.3-0.9-3.1-1.7c-10.7-10.5-24.1-14.3-38.5-14.5c-11.8-0.2-23.6,1.1-35.4,0.9C824.3,735.7,814.2,727.4,804.9,717.9z
		 M887.3,733.1c-14.9-7.3-31-2.6-47.2,0C856.2,733.1,872.2,733.1,887.3,733.1z"/>
	<path d="M380.6,914.6c2.2-2.9,4.7-5.6,6.7-8.7c7.8-12.1,10.4-25.6,10-39.9c-0.4-11.1-1-22.3-0.2-33.3c0.8-11.2,8.3-19.5,15.1-27.9
		c0.2-0.3,0.9-0.1,1.9-0.3c-0.4,1.2-0.6,2.1-1.1,2.7c-8.9,10.4-11.5,22.5-9.3,35.8c0.9,5.4,1.6,10.8,2.5,16.2
		c2.5,14.8-1.7,28-10.2,39.9c-4.2,5.9-9.1,11.2-13.6,16.8C381.7,915.5,381.2,915,380.6,914.6z M399.5,838.8c-0.5,0-0.9,0.1-1.4,0.1
		c0.6,8.4,1.7,16.7,1.7,25.1c0,8.2-1,16.4-1.5,24.1C406.3,872.3,401.1,855.5,399.5,838.8z"/>
	<path d="M627.6,842.8c0.4,1.6,1,3.2,1.2,4.8c2.1,14.2,10.1,24.2,21.8,31.8c10.6,6.8,20.1,14.5,25.8,26.2
		c5.5,11.2,6.3,23.2,7.2,35.3c0.1,0.9-0.6,1.9-1,2.9c-0.4,0-0.9,0-1.3-0.1c-0.3-2.3-0.5-4.6-0.8-6.9c-2.6-19.1-13.2-33.1-27.7-45
		c-8.3-6.8-17.2-13.4-21.3-23.8c-2.6-6.6-3.8-13.7-5.5-20.6c-0.3-1.4,0.2-3.1,0.3-4.7C626.8,842.8,627.2,842.8,627.6,842.8z
		 M675.4,913.3c-5.7-16.9-19.3-25.9-33.3-34.7C653.3,890,667.4,898.6,675.4,913.3z"/>
	<path d="M288.9,627.9c-17.7,1.3-29.3,11.3-38.3,25.4c-6.6,10.4-14.8,19.1-26.5,24c-11.1,4.7-22.8,5.6-34.6,5.8
		c-0.4,0-0.8-0.5-2.2-1.3c1.9-0.7,3.1-1.5,4.3-1.5c19.5-0.3,33.3-11.3,45.9-24.6c6.8-7.2,13.2-15,21-21.1c8.1-6.3,18.3-8.1,28.6-8.4
		c0.6,0,1.1,0.3,1.7,0.4C288.8,627.1,288.9,627.5,288.9,627.9z M217.7,675.4c18.8-5.5,27.3-21.9,38.1-35.9
		C242.8,651,234.2,667.3,217.7,675.4z"/>
	<path d="M843.2,503.9c2.5-0.3,5-0.4,7.4-1c11.6-2.8,20.5-9.4,27.5-19.2c5.9-8.2,12.1-16.4,19.6-23c8.8-7.7,20.3-10.1,31.8-11.5
		c3.3-0.4,6.6-0.7,9.9-0.8c1.6,0,3.2,0.5,4.7,1.9c-4.6,0.8-9.2,1.4-13.7,2.5c-13.9,3.3-24.8,11.3-34.3,21.8
		c-7,7.7-14,15.6-21.9,22.3c-8.1,6.9-18.8,7.7-29,8.8c-0.7,0.1-1.4-0.5-2.1-0.8C843.2,504.6,843.2,504.2,843.2,503.9z M914.5,456.3
		c-19,5.5-27.5,22.3-38.5,36.4C889.3,481,898.1,464.5,914.5,456.3z"/>
	<path d="M450.2,188.2c1.4,6.4,2.3,13.1,4.5,19.2c4.9,13.7,14.5,24,25.4,33.2c4.7,4,9.3,8.1,13.6,12.5c9.1,9.4,10.8,21.7,12.5,34
		c0.1,0.5-0.4,1.1-1.3,3.1c-0.8-2.8-1.5-4.2-1.6-5.6c-1.1-12.1-7.6-21-16.7-28.3c-5.2-4.1-10.8-7.7-16.1-11.8
		c-11.2-8.6-17.5-20.2-19.6-34c-0.9-6.1-1.4-12.2-2-18.3c-0.1-1.4,0.3-2.8,0.4-4.1C449.7,188.1,450,188.2,450.2,188.2z M491.8,255.9
		c0.3-0.3,0.6-0.6,1-1c-6.7-5.8-13.7-11.3-20-17.6c-6.2-6.2-11.5-13.2-16.3-18.7C461.2,236.2,478.2,244.5,491.8,255.9z"/>
	<path d="M717.9,326.9c2-2.9,4.2-5.8,6-8.8c7-11.6,6.7-24.1,3.6-36.6c-5.7-22.9,0.9-42.2,16.8-58.9c2.1-2.2,4.1-4.5,6.2-6.7
		c0.5,0.4,1,0.9,1.4,1.3c-0.7,0.9-1.3,1.9-2.1,2.7c-13.4,15.3-16.1,33.4-14.5,53c0.9,12,3.2,24.4-2.7,35.7
		C728.9,315.5,725.6,323,717.9,326.9z M733,294.7c0-16.7,0-33.2,0-49.5C726.4,261.6,731.1,278.1,733,294.7z"/>
	<path d="M196.2,653.8c-38.8,12.1-79.4,14.2-119,21.7c-0.2-0.8-0.3-1.7-0.5-2.5c39.7-6.8,78.8-17.1,118.9-22.1
		C195.8,651.9,196,652.9,196.2,653.8z"/>
	<path d="M766,243.3c0.5-1.4,0.7-2.9,1.5-4c9-14.1,17.7-28.4,27.3-42.1c12.3-17.6,25.2-34.7,38-51.9c0.6-0.8,1.5-1.4,2.9-1.6
		c-22.5,33.6-42.9,68.7-67.9,100.6C767.1,243.9,766.5,243.6,766,243.3z"/>
	<path d="M479,196.2c-13.2-38.8-14.6-79.7-23-120.7C461.3,80.6,482,190.7,479,196.2z"/>
	<path d="M243.1,366.5c-4.1-2-8.6-3.4-12.3-6c-18-12.5-35.9-25.2-53.7-37.9c-10.6-7.5-20.9-15.3-31.4-23c-1-0.7-1.9-1.5-2.3-3.1
		c33.9,22.3,69,42.7,100.9,67.9C243.8,365.1,243.4,365.8,243.1,366.5z"/>
	<path d="M296,987.4c23.5-32.6,43.3-67.8,68.4-99.4c0.5,0.2,1.1,0.4,1.6,0.7c-0.5,1.6-0.6,3.5-1.5,4.9c-8.5,13.4-16.8,27.1-25.9,40
		c-12.3,17.5-25.4,34.4-38.2,51.5c-0.9,1.2-2,2.3-3,3.4C296.9,988.1,296.5,987.7,296,987.4z"/>
	<path d="M889.1,765.5c4.1,1.9,8.4,3.5,12.1,5.9c12.8,8.5,25.5,17.3,38.1,26.2c12.3,8.8,24.4,17.8,36.5,26.8
		c4.6,3.4,9.1,6.8,13,11.1c-33.5-22.9-69.2-42.5-100.8-68.2C888.5,766.7,888.8,766.1,889.1,765.5z"/>
	<path d="M1052.6,459.3c-38.9,6.3-77.1,17.1-116.4,21.5c-0.2-0.8-0.4-1.6-0.7-2.5c6.5-2,12.8-4.5,19.4-6c10.2-2.2,20.5-3.9,30.9-5.5
		c15.7-2.4,31.5-4.5,47.3-6.8c4.7-0.7,9.4-1.7,14.2-2.5c1.7-0.3,3.4-0.3,5.1-0.5C1052.5,457.9,1052.6,458.6,1052.6,459.3z"/>
	<path d="M653.8,935.3c10.8,31.2,12.4,64.2,18.4,96.3c-0.6,0.2-1.1,0.4-1.7,0.7c-0.9-2.2-2.2-4.2-2.7-6.5
		c-4.4-21.4-8.8-42.8-12.8-64.2c-1.6-8.5-2.6-17.2-3.8-25.8C652,935.6,652.9,935.5,653.8,935.3z"/>
	<path d="M113.3,515.3c-10,3-99.5-5.8-103.9-10.5C45.4,503,79.1,511.5,113.3,515.3z"/>
	<path d="M654.9,319.8c8.3-33.7,26.1-63.5,39.4-95.9C696.3,229.6,661.1,315.5,654.9,319.8z"/>
	<path d="M1121.9,626.6c-4.5,0.4-9.1,1.6-13.6,1.2c-18.8-1.9-37.6-4.2-56.4-6.4c-9.1-1.1-18.1-2.2-27.2-3.3
		c-1.7-0.2-3.5-0.7-5.1-1.9c34.2,1.7,68.4,2.7,102.3,8.1C1121.9,625.1,1121.9,625.8,1121.9,626.6z"/>
	<path d="M478.1,811.2c-4.8,23-16.2,43.4-25.7,64.5c-3.9,8.6-7.8,17.2-11.8,25.8c-1,2.1-2.3,4.1-3.4,6.1c-0.4-0.2-0.8-0.4-1.1-0.6
		c3.4-8.9,6.8-17.8,10.3-26.6c7.5-18.9,15.1-37.8,22.8-56.7c1.6-3.8,3.8-7.4,5.9-10.9c0.5-0.8,2.1-1,3.2-1.5
		C478.2,811.4,478.1,811.2,478.1,811.2z"/>
	<path d="M802.9,454.9c29.6-18.5,63.5-26.5,96.1-40.4C895.7,420.1,811.4,455.5,802.9,454.9z"/>
	<path d="M517.1,1018.9c-3.7,34-3.3,68.3-9.4,102.1c-0.5,0.1-0.9,0.2-1.4,0.3c-0.5-1.1-1.4-2.2-1.4-3.3c0.7-13.6,1.2-27.2,2.6-40.8
		c1.8-17.7,4.2-35.3,6.5-52.9c0.2-2,0.9-3.9,1.4-5.8C516,1018.7,516.5,1018.8,517.1,1018.9z"/>
	<path d="M907.7,694.5c-11.1,0-93.4-34.8-95.9-40.9C846.2,662.9,876,680.9,907.7,694.5z"/>
	<path d="M330.3,676c-1.9,1.7-2.9,3.2-4.3,3.8c-12.3,5.6-24.6,11.5-37.1,16.5c-17.7,7-35.6,13.4-53.4,20.1c-0.4,0.2-0.9,0-1.5,0
		C235.7,712.3,320.3,676.4,330.3,676z"/>
	<path d="M455.4,329.7c-4.1-7.3-9-14.3-12.1-22c-8.8-22.1-16.9-44.5-25.3-66.8c-0.9-2.3-1.6-4.6-2.4-6.9c0.5-0.2,1.1-0.4,1.6-0.6
		c2.3,5.3,4.7,10.7,7,16c9.5,21.9,19.1,43.7,28.3,65.7C454.3,319.5,454.4,324.8,455.4,329.7C455.3,329.7,455.4,329.7,455.4,329.7z"
		/>
	<path d="M225.5,435.7c31.4,14,64.6,23.4,95,39.8c-0.2,0.7-0.4,1.4-0.6,2c-4.5-1-9.2-1.4-13.3-3.2c-22.1-9.6-44-19.5-65.9-29.3
		c-5.4-2.4-10.7-5-16-7.5C224.9,437,225.2,436.3,225.5,435.7z"/>
	<path d="M1000.8,214.9c-1.1,7.8-71.8,65.9-80.8,66.5C947.5,259,972,234.5,1000.8,214.9z"/>
	<path d="M675.8,802.1c2.9,3.7,6.6,7.1,8.4,11.2c6.1,13.9,11.6,28.1,17.1,42.3c5,13.1,9.7,26.3,14.5,39.5c0.4,1.1,0.5,2.2,0.7,3.3
		c-0.4,0.1-0.9,0.2-1.3,0.4c-4-9-8-17.9-11.9-26.9c-7.7-17.8-15.4-35.5-22.8-53.4c-2.2-5.3-3.1-11-4.7-16.6
		C676,801.9,675.8,802.1,675.8,802.1z"/>
	<path d="M850.2,920.8c22.8,26.3,47.8,50.8,67.5,79.6c-0.6,0.5-1.3,1.1-1.9,1.6C889.9,978.3,871.7,948.1,850.2,920.8z"/>
	<path d="M211.1,850.6c-13.8,15.3-72.4,63.6-79.5,65.6C134.1,908.1,201.8,852.3,211.1,850.6z"/>
	<path d="M281.3,212c-22.1-27.9-47.4-51.7-66.2-80.9C223.4,133.7,280.8,203.8,281.3,212z"/>
	<path d="M625.9,11.3c3.4,34.6-5.7,68.1-9.3,102.1C618.3,79.2,619,45,625.9,11.3z"/>
	<path d="M161.6,608.2c-3.7,3.4-85.9,14.1-92.3,11.9C74.6,616.5,155.4,606.1,161.6,608.2z"/>
	<path d="M523.2,161.6c-7.6-30.2-7.9-61.4-12.5-93C515.3,72.7,526.1,154.9,523.2,161.6z"/>
	<path d="M1063.1,512.4c-30.7,5-61.4,10.4-93.7,12.7C974.4,520.2,1052.7,509.9,1063.1,512.4z"/>
	<path d="M881.5,821.5c27.3,16,50.4,37.7,74.7,57.8C930.5,861.1,904.3,843.6,881.5,821.5z"/>
	<path d="M879.6,176c-18.3,25.7-35.7,52.2-58,74.7C838,223.6,859.3,200.2,879.6,176z"/>
	<path d="M252.7,955.6c18.6-25.1,35.3-51.8,57.7-74C294.1,908.6,272.9,931.7,252.7,955.6z"/>
	<path d="M250.6,310.1c-27.4-15.9-50.1-37.7-74.4-57.5C201.9,270.6,227.7,288.4,250.6,310.1z"/>
	<path d="M748.2,260.8c5,19.5,6.8,38.8-0.5,57.9c-3.8,9.9-9.5,18.6-18.1,25.2c-0.6,0.5-1.4,0.8-2.2,1.1c-0.2,0.1-0.6-0.1-1.4-0.4
		c0.5-0.8,0.8-1.7,1.3-2.3c15.7-16.8,23-36.6,21.7-59.6c-0.3-5.8-0.9-11.6-1.2-17.4C747.8,263.8,748.1,262.3,748.2,260.8z"/>
	<path d="M522.9,295.7c-0.6-3-1.3-5.9-1.6-8.9c-2.8-25.2-15.4-44.4-35.8-58.8c-5.5-3.9-5.8-4.4-5.8-8.3c8.4,7.1,17.4,13.4,24.9,21.2
		c13.5,13.9,21.8,30.4,20.3,50.6c-0.1,1.4-0.4,2.8-0.6,4.1C523.8,295.7,523.4,295.7,522.9,295.7z"/>
	<path d="M836.5,522c15.3-1,30.5-3.4,42.7-13c11.5-9.1,21.7-19.8,32.4-29.7c-3,4.2-6,8.5-9.2,12.7c-10.7,14-23.6,25.3-41,30.1
		c-6.8,1.9-14,2-21,2.7c-1.3,0.1-2.6-0.7-3.9-1C836.4,523.2,836.4,522.6,836.5,522z"/>
	<path d="M175.7,605.3c23.1-2.9,45.8-9,69.2-9c0.2,0.6,0.4,1.1,0.6,1.7c-1,0.7-2,1.8-3.1,2c-10,1.8-20.1,3.7-30.2,4.9
		c-10.2,1.2-20.5,1.6-30.8,2.3c-1.9,0.1-3.8,0-5.7,0C175.7,606.6,175.7,606,175.7,605.3z"/>
	<path d="M383.1,870.3c-4.5-20.5-5.8-41.1,3.2-61c3.8-8.4,9-15.9,16.5-21.4c0.5-0.4,1.1-0.7,1.7-1c0.2-0.1,0.6,0.1,1.6,0.4
		c-9.6,11.7-18.9,23.8-20.9,38.9C383.3,840.7,383.7,855.6,383.1,870.3z"/>
	<path d="M956.7,524.5c-7.2,4.7-61.2,11.7-70,8.8c2.6-1,5.1-2.6,7.8-3c12.3-1.6,24.7-2.8,37.1-4.1c5.8-0.6,11.6-1.2,17.4-1.7
		C951.5,524.4,954.1,524.5,956.7,524.5z"/>
	<path d="M295.9,609.5c-15.1,1.2-30.2,3.7-42.3,12.9c-11.9,9-22.2,20.1-33.6,30.5c2.9-3.8,5.8-7.4,8.5-11.1
		c10.9-15.1,24.3-27.1,42.4-32.2c7.3-2.1,15.4-1.6,23.1-2.3c0.5,0,1.1,0.5,1.6,0.8C295.7,608.6,295.8,609.1,295.9,609.5z"/>
	<path d="M525.1,176.1c4.5,5.8,11.7,63.5,8.7,69C525.3,222.9,527.6,199.2,525.1,176.1z"/>
	<path d="M261.6,383.7c19.9-5.2,39.9-7,59.1,1.8c7.4,3.4,13.8,8.9,20.4,13.8c1.9,1.4,2.9,3.8,4.4,5.8c-0.3,0.3-0.6,0.6-0.9,0.9
		c-2.3-1.8-4.6-3.7-6.9-5.5c-19.1-14.6-40.4-20.8-64.4-16.9C269.5,384.2,265.6,383.7,261.6,383.7z"/>
	<path d="M1083.2,824.7c-10-4.3-20-8.4-29.9-12.9c-10.3-4.7-20.4-9.6-30.5-14.6c-1.2-0.6-1.8-2.3-2.7-3.5c1.3,0,2.9-0.4,4,0.1
		c11.5,5.1,23,10.1,34.4,15.5c7.5,3.6,14.7,7.7,21.9,11.7c1.3,0.7,2.3,1.7,3.5,2.5C1083.7,823.9,1083.4,824.3,1083.2,824.7z"/>
	<path d="M775.5,893.4c17.1,17.2,24.6,39.9,35.5,60.7C798.5,934.3,783.4,915.9,775.5,893.4z"/>
	<path d="M238.9,776.5c-17.9,15.8-40.5,23.5-61.2,34.4c19.8-12.7,38.2-27.6,60-36.7C238.1,775,238.5,775.7,238.9,776.5z"/>
	<path d="M667.1,118.5c0.8,12.8-13.4,64.4-18.6,68.1C649.9,161.9,660.4,140.7,667.1,118.5z"/>
	<path d="M871.2,749.2c-3.7,0.6-7.3,1-11,1.7c-18.3,3.2-36.1,2.1-53-6.2c-8.4-4.1-15.5-9.9-19.9-18.7c5.1,3.7,10.1,7.6,15.4,11
		c16.6,10.8,34.9,13.8,54.3,11.4c4.6-0.6,9.3-0.5,14-0.7C871.1,748.2,871.2,748.7,871.2,749.2z"/>
	<path d="M825.1,49.2c-10.2,20.9-16.7,43.5-30.2,64.1c-2.2-6,0-10.3,1.9-14.1c8.2-16.6,16.9-33,25.4-49.5c0.3-0.6,0.5-1.3,0.7-1.9
		C823.6,48.3,824.3,48.7,825.1,49.2z"/>
	<path d="M1046.9,405.5c21.5-12.7,44.9-16.1,66.8-23.7C1109.9,387.7,1054.5,407.6,1046.9,405.5z"/>
	<path d="M321.8,176.9c11.9,20.2,26.6,38.8,35.9,60.6c-0.7,0.5-1.4,1-2,1.5c-2.3-2.6-5-4.9-6.7-7.9c-9.9-17.5-19.5-35.2-29.2-52.8
		C320.5,177.8,321.1,177.3,321.8,176.9z"/>
	<path d="M318.6,870.8c13.7-19,24.9-39.9,43.1-55.4C352,837.5,333.8,853,318.6,870.8z"/>
	<path d="M47.3,307.6c10.5,0.3,63.1,25.7,64.5,31.6c-4.5-1.4-8.9-2-12.7-4c-16.6-8.3-33-17-49.4-25.6
		C48.9,309.3,48.3,308.5,47.3,307.6z"/>
	<path d="M17.8,748.7c21.8-8.1,42.5-19.1,65.5-23.6C79,731.7,25.2,750.9,17.8,748.7z"/>
	<path d="M815.7,769.5c3,1.4,6.4,2.2,8.9,4.2c11.6,9.2,23,18.7,34.4,28.1c4.3,3.5,8.4,7.2,12,11.6c-19.2-13.4-39.4-25.5-56.3-41.9
		C815,770.8,815.3,770.2,815.7,769.5z"/>
	<path d="M946,649.7c24.1-0.4,45.2,10.6,67.5,17.3C990.7,662.5,967.5,659.5,946,649.7z"/>
	<path d="M382,18.3c6.6,5.2,26.4,61.1,23.1,66.1C393.1,63.5,389.3,40.3,382,18.3z"/>
	<path d="M893.2,355.1c18.1-15.3,40.4-23.2,61.1-34c-19.6,12.6-37.9,27.5-59.8,36.4C894.1,356.7,893.6,355.9,893.2,355.1z"/>
	<path d="M318.2,361.1c-7.6,1.2-48.1-29.9-56.7-43.2C280.2,332,300.8,343.7,318.2,361.1z"/>
	<path d="M606.6,956.3c-3.4-22.9-10.3-45.3-8.5-68.9C606.8,909.6,605,933.2,606.6,956.3z"/>
	<path d="M481.7,944.6c3.9,6.2-9.1,56.7-15.7,61.7C470.6,985.8,473,964.9,481.7,944.6z"/>
	<path d="M771,317.8c-1.2-7.3,25.6-42.4,42.8-56.7C800.4,280.3,788.4,300.6,771,317.8z"/>
	<path d="M653.5,910.7c-19.4-12.3-36.5-26.7-43.7-49.4c-2-6.2-2-13-2.6-19.6c-0.2-1.7,0.8-3.6,1.8-5.3c2.4,15.1,5.2,29.7,13.4,42.8
		C630.4,892,642.5,900.8,653.5,910.7z"/>
	<path d="M309.9,1076.3c9.4-18.8,15-39.5,27.1-57c0.7,0.2,1.4,0.4,2,0.5c-0.9,3.7-1.2,7.8-2.8,11.1c-7.2,14.7-14.8,29.2-22.4,43.8
		c-0.6,1.1-1.8,1.8-2.7,2.7C310.7,1077,310.3,1076.7,309.9,1076.3z"/>
	<path d="M118.8,464.8c26.5,3.5,61.3,12.4,67.4,17.2C180.3,485.1,138.4,474.6,118.8,464.8z"/>
	<path d="M724.6,1047.1c9.2,6.8,19.2,37.4,16,48.3c-2.3-3.1-6.2-4.4-4-9.4c0.7-1.6-1-4.3-1.8-6.4c-2.7-7.3-5.5-14.5-8-21.8
		C725.7,1054.7,725.4,1051.3,724.6,1047.1z"/>
	<path d="M1131.4,504.7c-15.5,7.8-32.4,4.2-49.6,6.9C1086,506.7,1123.1,501.8,1131.4,504.7z"/>
	<path d="M577.8,60.6c5.6,16.4,0.5,32.8-0.3,49.2C576.4,93.4,572.7,77,577.8,60.6z"/>
	<path d="M1022.7,577.1c6.7-3.1,44.7-2.7,48.8,0.5C1067.2,581.3,1027.9,580.9,1022.7,577.1z"/>
	<path d="M217.4,199.8c7.3,3.3,31.9,28.9,34.1,35.6C243.4,232.8,217.2,205.4,217.4,199.8z"/>
	<path d="M1001.7,732.4c-17.8-1.2-31.5-11.3-47.4-17.1C959.1,712.3,998.5,726.6,1001.7,732.4z"/>
	<path d="M946.3,395c14.6-7.4,28.2-16.7,45-21.2C989.4,380.6,954.9,396.5,946.3,395z"/>
	<path d="M755.8,991.5c-10.5-13.7-14.3-30-20.9-46.4C742.9,950.7,758.9,986.6,755.8,991.5z"/>
	<path d="M139.9,756.3c13.7-11.7,30.5-14.2,46.3-21.7C182.6,741.4,147.6,757.7,139.9,756.3z"/>
	<path d="M505.4,0c6.8,16.7,4.1,33.5,6,50.9C506.4,45.1,501.7,5.5,505.4,0z"/>
	<path d="M627.7,1130.8c-8.3-15.7-4.4-32.6-5.6-49C624.9,1098.1,630.7,1114,627.7,1130.8z"/>
	<path d="M922.3,122.9c-6.1,16-19.2,26.6-30.4,38.7C900.5,147.5,908.6,133,922.3,122.9z"/>
	<path d="M160.9,241.4c-12.7-10.3-27.9-17.3-37.9-31.6c1.2,0.2,2.6,0.1,3.4,0.7c9.6,7.5,19.3,15,28.7,22.8c2.5,2,4.4,4.7,6.6,7.1
		C161.5,240.7,161.2,241,160.9,241.4z"/>
	<path d="M0,626.7c16.5-7.4,33.4-2.9,49.4-6C45.3,625.8,7.8,630.2,0,626.7z"/>
	<path d="M235.3,879.9c-3.4,9.3-29.5,34.6-35.7,34.7C208.2,899.2,223.4,891.2,235.3,879.9z"/>
	<path d="M395.8,185.9c-7.8-14.3-17.6-27.8-20.3-44.5C387.2,154,390.7,170.3,395.8,185.9z"/>
	<path d="M59.3,553.7c3.7-1.1,6.2-2.4,8.6-2.4c13.4,0.5,26.8,1.3,40.2,2.1c0.4,0,0.8,0.5,1.2,0.8C105.9,557.6,66.8,557.8,59.3,553.7
		z"/>
	<path d="M108.1,693.4c7.7-14.1,51.8-23.5,65.5-13.9C150.2,676.7,128.1,680,108.1,693.4z"/>
	<path d="M895.8,250.8c11.5-11.6,20.7-25.5,34.8-34.4c0.4,0.2,0.8,0.5,1.3,0.7c-0.5,1.3-0.6,3-1.5,3.9c-7.8,7.8-15.8,15.5-23.8,23.1
		c-3,2.9-6.4,5.4-9.7,8C896.6,251.7,896.2,251.3,895.8,250.8z"/>
	<path d="M400.1,1000.7c1-16.9,10.4-30.6,16.8-46.9C418.6,961.9,406,996.8,400.1,1000.7z"/>
	<path d="M1007.8,922.7c-15.1-7.4-25.8-20.2-37.5-31.8c13.4,9.5,28.7,16.8,39.2,29.9C1008.9,921.4,1008.4,922,1007.8,922.7z"/>
	<path d="M240.6,970.5c-9.1,13.7-16.7,28.6-30.7,38.4C215.8,992.7,229.2,982.4,240.6,970.5z"/>
	<path d="M439,107.9c15.9,14.5,22.6,50.1,13.4,65.5C456.8,149.7,450.9,128.2,439,107.9z"/>
	<path d="M555.2,1022.5c1,16.2,3.7,32.3,0.2,49.1C550.2,1067.2,550.2,1033.9,555.2,1022.5z"/>
	<path d="M732.7,129.8c-1.3,18.2-11.1,31.9-17.2,47.7C713.1,171.7,726.1,135.3,732.7,129.8z"/>
	<path d="M130.7,400.6c17.3,0.2,31.3,9.5,46,16.9C161,413.1,144.7,409.9,130.7,400.6z"/>
	<path d="M880.9,896.2c12.5,10.6,25.8,20.5,35.2,34.6C910.2,932.3,886,908.4,880.9,896.2z"/>
	<path d="M694.2,1022.4c-1.5,2.7-2.9,1.3-3.8-0.4c-3.9-7.4-8.3-14.7-11.4-22.5c-4.7-11.9-3.9-24.3-2-36.7c0.2-1.6,1.1-3,1.7-4.5
		c0.4,0,0.8,0.1,1.2,0.1c0,1.4,0.2,2.9,0,4.3c-3.4,21.3,1.3,40.8,12.8,58.8c0.3,0.5,1.1,0.6,1.6,0.9
		C694.4,1022.5,694.2,1022.4,694.2,1022.4z"/>
	<path d="M331.9,979.7c-0.6-22.8,20.3-51.4,37.1-55.9C349.5,937.6,337.7,956.6,331.9,979.7z"/>
	<path d="M762.2,208c20.6-13.5,31.6-32.1,37.1-54.9C805.9,166,778.3,207.4,762.2,208z"/>
	<path d="M958.7,452c23.5,3.8,45.4-0.3,65.5-13.6C1013.3,453.2,972.8,462.4,958.7,452z"/>
	<path d="M209.1,368.5c-8.2-7.5-15.8-16.2-25-22.4c-9.3-6.2-20.3-10-29.3-14.3C167.3,329.7,198.8,345.6,209.1,368.5z"/>
	<path d="M923.9,763c13.7,19.6,32.8,31,56.8,36.6C965.1,804.5,931,782.4,923.9,763z"/>
	<path d="M706.3,285.3c6.1,19.2-12.1,42-26.6,43.7C694.3,317,706.5,304.7,706.3,285.3z"/>
	<path d="M864.1,465.9c-8.2,15.6-34,23-48.6,13.7C833,479.7,850.9,481.1,864.1,465.9z"/>
	<path d="M465.6,269c1-0.1,2.4-0.8,3-0.3c10.7,7.4,17.8,26.3,14.7,39.4c-0.7,2.9-1.5,5.8-2.3,8.7c-0.6-0.1-1.2-0.1-1.9-0.2
		c0-2.3-0.3-4.7,0-7c1.2-9.4,0.7-18.7-3.5-27.1c-2.5-5-6.8-9-10.3-13.5C465.5,268.9,465.6,269,465.6,269z"/>
	<path d="M846.3,706.1c-15.1,5.6-39.8-8.5-43.1-25.2c6.4,5.9,12.6,12,19.2,17.4C829.2,703.9,837.8,705.2,846.3,706.1z"/>
	<path d="M286.3,425.5c19-3.9,38.7,9.8,42.5,25.4C317.1,438.2,305.3,425.8,286.3,425.5z"/>
	<path d="M450.9,802.8c-12.3,12.2-25.8,23.8-24,44.8C420.2,835.7,430.4,809.5,450.9,802.8z"/>
	<path d="M652.1,815.5c-0.4,17.6-0.8,34.9,15.1,48.4c-5.9-1.1-14.6-11.7-16.9-20C647.5,834.4,647.4,824.8,652.1,815.5z"/>
	<path d="M316.7,652.3c-1.6,0.1-3.3,0.4-4.9,0.2c-12.2-1-24.2-0.5-34.9,6.6c-3,2-5.5,4.5-8.5,6.9C271.6,655,296.1,641.8,316.7,652.3
		z"/>
	<path d="M619.3,1063.1c-2.4-15.8-4.7-31.6-7.1-47.4c0.4-0.2,0.9-0.5,1.3-0.7c1.2,1.7,3.1,3.4,3.3,5.2c1.6,13.9,2.8,27.8,4.1,41.7
		c0,0.4-0.3,0.8-0.5,1.2C620,1063.1,619.6,1063.1,619.3,1063.1z"/>
	<path d="M559.4,975.1c-0.8,12-1.6,24.1-2.4,36.1c-4.7-4.3-3.2-32,0.6-36.4C558.2,974.9,558.8,975,559.4,975.1z"/>
	<path d="M157.4,557.4c-12.4,3.6-24.6-0.3-37.1-1.4C124.3,553,150.7,553.7,157.4,557.4z"/>
	<path d="M576.7,120.7c1.3,12.2,2.7,24.5-2,36.4C572.4,144.8,574.6,132.7,576.7,120.7z"/>
	<path d="M873.7,888.4c-6.2-3.2-22.5-20.7-25.2-27.1C853.4,861.7,871.3,880.9,873.7,888.4z"/>
	<path d="M259.1,242.2c8.6,9.8,18.9,16.8,24.9,28.1C278.8,270.4,259.4,248.7,259.1,242.2z"/>
	<path d="M1011.5,576.4c-12.1,1-24.2,2.9-36.1-1.8C987.5,571.7,999.5,574.5,1011.5,576.4z"/>
	<path d="M888.3,258.9c-8,9.1-15.6,18.6-26.7,24.2C867.9,272.2,878.5,265.9,888.3,258.9z"/>
	<path d="M270.7,848.7c-6.5,10.7-16.8,17.3-26.7,24.3C251.8,863.7,259.5,854.3,270.7,848.7z"/>
	<path d="M226.1,719.9c-10,6.6-21,8.8-32.8,12.4C199.3,725.8,221,717.6,226.1,719.9z"/>
	<path d="M400.6,193.9c5.7,9.6,11.2,19.4,12.2,30.8C404.8,216,403.8,204.5,400.6,193.9z"/>
	<path d="M607.9,1002.6c-0.4-2.6-1.6-5.2-0.8-6.7c3.4-6,0.4-11.9,0.5-17.8c0-2.8,0-5.7,0.8-8.5C611.5,980.4,617.1,991,607.9,1002.6z
		"/>
	<path d="M699.1,216.1c0.7-11.6,7.6-20.5,13-30.1C709.6,196.8,706.3,207.3,699.1,216.1z"/>
	<path d="M419.5,945.7c3.4-10.5,6.4-21.2,12.9-30.8C435.1,918.7,425.8,940.5,419.5,945.7z"/>
	<path d="M907.5,412.3c8.8-7.4,19.9-8.8,30.5-11.7C928.4,406,919.1,412.2,907.5,412.3z"/>
	<path d="M720,907.2c7.2,8.8,8.6,19.9,12.6,30.8C727.6,935,718.5,913.2,720,907.2z"/>
	<path d="M216.5,432.9c-3.9,1.7-24.7-7.3-30.3-13.2c0.2-0.4,0.3-0.8,0.5-1.2c10.1,4.3,20.2,8.5,30.3,12.8
		C216.8,431.8,216.7,432.4,216.5,432.9z"/>
	<path d="M917.1,696.7c9.7,4.7,19.4,9.4,29.1,14c-7.2,1.7-28.6-8-30.2-12.5C916.4,697.7,916.8,697.2,917.1,696.7z"/>
	<path d="M278.6,596.5c8.2-4.9,16.7-7.3,25.9-3.5C295.9,594.2,287.2,595.3,278.6,596.5z"/>
	<path d="M596.9,853.7c-5.5-5.6-7.7-20.3-4.1-26.5C594.2,836,595.5,844.7,596.9,853.7z"/>
	<path d="M400.5,769.4c-5.4,7.2-10.6,14.1-15.6,20.8C383.6,784.9,392.5,772.3,400.5,769.4z"/>
	<path d="M827.8,539.1c8.5-1.2,17-2.5,25.5-3.7C845.3,540.4,836.9,542.4,827.8,539.1z"/>
	<path d="M769.7,731.8c7.1,5.3,14.3,10.5,21.4,15.8C781.5,745.7,774.7,739.9,769.7,731.8z"/>
	<path d="M341.5,384.5c9.3,2,16.4,7.1,20.8,15.6C355.4,394.9,348.5,389.7,341.5,384.5z"/>
	<path d="M747.4,341.5c0.5,6.5-7.7,17.7-15.6,21C737.1,355.5,742.3,348.5,747.4,341.5z"/>
	<path d="M539.5,303.5c-1.4-8.4-2.8-16.8-4.2-25.1C540.4,282.7,542.8,297.2,539.5,303.5z"/>
	<path d="M528.1,320.3c-0.4,17.3-16.4,34.6-37.8,27.9c-7-2.2-14.3-3.5-20.1-8.9c-1.9-1.7-5.9-1.1-9.1-1.5c2.4-3.3,8.5-3.7,19.7-0.7
		c-2.2,0.8-4.4,1.6-6.6,2.4C497.1,347.1,515.9,343.4,528.1,320.3z"/>
	<path d="M730.2,405.7c0.7-0.1,1.2-0.3,1.3-0.2c3.9,4.7,9.1,5.1,14.7,5.1c3.9,0,7.7,0.4,11.6,0.7c2.6,0.2,5.2,0.3,7.7,1.4
		c-8.5,2.9-17,0.9-26.4-0.8c1.9,2.9,1.5,5.3,5.8,4.2c4.1-1.1,8.9,0.5,13.3,0.9c0,0.5-0.1,1.1-0.1,1.6c-4.7,0-9.5,0-14.3,0
		c3.3,7.6,3.8,7.4,11.2,6.4c5.3-0.7,10.9-0.1,16.3-0.1c0,0.7,0.1,1.4,0.1,2.1c-1.3,0.3-2.6,0.7-4,0.7c-5,0.1-9.9-0.1-14.9,0.1
		c-0.9,0-1.9,1.1-2.8,1.6c1,0.6,1.9,1.7,3,1.8c1.7,0.1,3.5-0.4,5.7,0.4c-1.8,1.1-3.5,2.2-5.6,3.4c0.3,1.5,0.6,3.4,0.8,4.8
		c-4.2-3.1-8.3-6.1-13.3-9.9c2.6,0.4,4.2,0.7,7.3,1.2C741.6,422.1,736,414,730.2,405.7z"/>
	<path d="M621.3,340c15.3,11.3,31.6,8.2,48.8,2.4C662.6,353,632.7,355.6,621.3,340z"/>
	<path d="M359.1,429.8c10.5,0.5,21.1,1,31.6,1.6c-10.6,6.4-21.1,3-31.5,0C359.2,430.8,359.2,430.3,359.1,429.8z"/>
	<path d="M505.8,328.2c-3.3,0.6-6.5,1.2-9.8,1.9c0,0.3,0.1,0.6,0.1,0.9c2.5,0.2,5,0.4,7.7,0.6c-2.4,3.5-2.4,3.5-21,0.1
		c3.7-1.1,8-1.4,11-3.5c4.1-2.9,7.8-1.7,11.7-1.6C505.6,327.2,505.7,327.7,505.8,328.2z"/>
	<path d="M690.6,726.1c10.8,0,20.9,0,32.1,0C718.1,729.7,695.7,729.4,690.6,726.1z"/>
	<path d="M391.8,411.1c7.4-1,14.8-2.1,23.4-3.3c-0.5,1.1-0.8,3-1.6,3.3C406.4,413.2,399.1,414,391.8,411.1z"/>
	<path d="M365.3,475.1c-4.9,4.4-17.1,4.3-24.9,0C348.3,475.1,356.1,475.1,365.3,475.1z"/>
	<path d="M577.4,340c-3.9-7.4-7.8-14.8-11.6-22.2C572.7,321.5,580.1,335.5,577.4,340z"/>
	<path d="M650.7,798.7c-6.4,6.2-13.7,1.7-20.7,2C636.4,795.3,643.8,800.2,650.7,798.7z"/>
	<path d="M782.2,535.1c8.4,0,15.5,0,23,0C800.6,540.2,790.8,540.3,782.2,535.1z"/>
	<path d="M394.9,423.6c-6.6,0-12.4,0-18.8,0C380.7,419.3,389.8,419.3,394.9,423.6z"/>
	<path d="M408.2,396.7c-7.7,1.8-15.2,0.5-22.7-1.2c0-0.5,0-1.1,0.1-1.6c7.6,0.4,15.1,0.8,22.7,1.2
		C408.2,395.6,408.2,396.2,408.2,396.7z"/>
	<path d="M717.5,707.7c7.4-4.5,14.7-4.4,19.2,0C730.3,707.7,724.4,707.7,717.5,707.7z"/>
	<path d="M325.9,508.4c4.7-4.7,10.3,1,15.3-1.1C336.6,512.2,331.1,509.2,325.9,508.4z"/>
	<path d="M704.1,744.9c5.4,0,10.9,0,16.8,0C717,748.8,710.2,749,704.1,744.9z"/>
	<path d="M616.9,806.8c5.2,0,9.8,0,15,0C627.4,810.9,621.1,810.8,616.9,806.8z"/>
	<path d="M701.4,744.9c-6.2,0-11.1,0-16.2,0C688.4,741.3,695.2,741.1,701.4,744.9z"/>
	<path d="M336.8,541.3c-4.5,4.1-11,4-18.7,0C324.8,541.3,330.4,541.3,336.8,541.3z"/>
	<path d="M491.9,796.7c-6.2,5-11.9,0.5-17.4,0C479.9,796.7,485.4,796.7,491.9,796.7z"/>
	<path d="M405.3,392.7c-4.1,0-8.2,0-12.4,0C395.1,389.7,400.2,389.4,405.3,392.7z"/>
	<path d="M792.7,561.5c5.1,0,9.2,0,13.8,0C803.5,565.1,798.4,565.1,792.7,561.5z"/>
	<path d="M738.2,432.8c-4.8,0-9.3,0-14.2,0C728.9,429.2,734.8,429.2,738.2,432.8z"/>
	<path d="M335.6,573.9c-4.5,0-8.4,0-12.6,0C325.8,570.2,330.6,570.1,335.6,573.9z"/>
	<path d="M494.7,799.8c-2.5,4.8-3.4,5-9.4,3.6c-0.1-0.5-0.2-0.9-0.3-1.4C487.8,801.3,490.7,800.7,494.7,799.8z"/>
	<path d="M649.9,792.8c3.3-0.6,6.7-1.2,10-1.8c0.1,0.7,0.3,1.5,0.4,2.2c-3.3,0.6-6.7,1.3-10,1.9C650.1,794.3,650,793.6,649.9,792.8z
		"/>
	<path d="M697,769.2c4.3,0,7.9,0,11.5,0C706.7,773.2,702.9,773.4,697,769.2z"/>
	<path d="M525.5,815.4c-3-0.8-5.9-1.7-8.9-2.5c0.2-0.7,0.4-1.3,0.6-2c3,0.8,6,1.6,8.9,2.4C525.9,814,525.7,814.7,525.5,815.4z"/>
	<path d="M280.6,782c8.2-6.4,15.9-13.5,24.6-19.1c7.7-5,16.5-8.3,24.9-12.4c0.3,0.6,0.6,1.2,0.9,1.8c-3.5,2-6.8,4.3-10.5,5.9
		c-8.4,3.7-14.3,10.4-19.3,17.6c-13.4,19.2-30.9,33.1-52.8,41.3c-8,3-16,5.9-24.1,8.8c-0.8,0.3-1.9,0-3.1-1
		c3.8-1.3,7.5-2.5,11.3-3.8c16.6-5.9,29.5-16.8,40.8-30c0.6-0.7,0.7-1.8,1-2.7C276.4,786.3,278.5,784.1,280.6,782z M266.8,803.7
		c14.1-8.9,25-21,35-34C287.1,777.9,278.1,792,266.8,803.7z"/>
	<path d="M280.6,782c-2.1,2.2-4.3,4.3-6.4,6.5c-1.8,1.6-3.6,3.1-5.4,4.7c-0.2-0.2-0.5-0.4-0.7-0.7c5.8-7.3,11.4-14.8,17.4-21.9
		c9.9-11.6,19.2-23.9,30.3-34.2c10.7-9.9,25-11.2,39.2-11c0.5,0,1.1,0.6,2.7,1.7c-2.6,1.2-4.3,2.2-6.1,2.7
		c-16.2,4.3-30.4,12.2-42.9,23.1c-9,7.9-17.3,16.5-25.8,24.9C282,778.9,281.4,780.6,280.6,782z M306.5,749
		c9.6-6.1,19.6-12.5,29.1-18.5C324.7,732.1,310.9,740.9,306.5,749z"/>
	<path d="M333.3,714c-21.9,14.2-38.3,33.5-52.8,55.7C281.3,755.8,320.9,714.1,333.3,714z"/>
	<path d="M305.4,785.9c-1.8,12.7-37.8,39.1-53,38.8c9.4-5.3,19.6-10,28.6-16.6C289.9,801.6,297.5,793.2,305.4,785.9z"/>
	<path d="M349.4,280c5.8,7,12.4,13.5,17.3,21.2c5.3,8.3,9.2,17.6,13.6,26.5c0.3,0.7,0.3,1.5-0.7,2.8c-1.7-2.8-3.8-5.5-5-8.5
		c-3.8-9.1-10.7-15.7-18.5-21c-20.1-13.7-33.5-32.3-42.1-54.7c-3.2-8.3-6.1-16.6-9.2-24.9c0.6-0.2,1.3-0.5,1.9-0.7
		c1.1,2.8,2.3,5.5,3.1,8.4c5.1,17.6,16.2,31,29.4,42.9c0.9,0.8,2.3,1.1,3.5,1.7C344.9,275.7,347.2,277.9,349.4,280z M329.8,267
		c3.9,9.9,26.3,32.4,32.7,34.5c0.3-0.3,0.7-0.7,1-1C352.3,289.3,341,278.1,329.8,267z"/>
	<path d="M349.4,280c-2.2-2.1-4.5-4.3-6.7-6.4c-1.2-1.5-2.4-3-3.6-4.4c0.2-0.2,0.4-0.4,0.6-0.7c5.1,4,10.3,8,15.4,12.1
		c12.8,10.5,26.3,20.4,38,32c12,11.8,14.3,27.6,13,43.8c-0.5,0.2-1,0.4-1.5,0.6c-1-2.5-2.3-4.9-3-7.4c-6.1-22-19.6-39.2-35.4-54.9
		c-4-4-8.1-7.9-12.2-11.8C352.6,281.7,350.9,280.9,349.4,280z M382.3,305.4c6.5,10.1,12.9,20.2,19.1,29.9
		C399.3,323,392,313.5,382.3,305.4z"/>
	<path d="M418.1,332.9c-14.5-21.3-33.2-38.1-55.4-52.2C376.1,281.2,416.2,319.1,418.1,332.9z"/>
	<path d="M307.8,251.2c7.5,22.1,21.6,39.3,40,54.2C334,304.4,305.4,265.1,307.8,251.2z"/>
	<path d="M782.2,851.3c-6.6-8.5-13.8-16.6-19.6-25.6c-4.8-7.4-7.9-15.8-11.8-23.7c0.4-0.3,0.9-0.6,1.3-0.9c0.7,0.9,1.6,1.6,2,2.6
		c6.1,14.1,17,23.8,29.1,32.6c16.5,12.1,26.7,28.9,34.4,47.4c2.9,6.8,5.2,13.9,7.6,20.9c0.6,1.6,0.7,3.5,1,5.2
		c-0.4,0.1-0.8,0.2-1.2,0.4c-1.4-3.9-2.8-7.7-4.1-11.6c-5.8-16.3-16.7-28.9-29.6-39.9c-0.5-0.4-1.2-0.4-1.8-0.6
		C787.1,855.8,784.7,853.5,782.2,851.3z M803.6,864.8c-8.5-14.2-21-24.5-33.6-34.7C778.2,844.6,791.9,853.7,803.6,864.8z"/>
	<path d="M782.2,851.3c2.5,2.2,4.9,4.5,7.4,6.7c1.4,1.7,2.8,3.4,4.1,5c-0.2,0.2-0.4,0.4-0.6,0.6c-6.1-4.7-12.3-9.3-18.3-14.1
		c-9.3-7.3-18.4-14.8-27.6-22.2c-16.1-12.9-22.2-30-21.2-50.1c0-0.6,0.4-1.2,1-3c1.2,2.3,2.2,3.4,2.6,4.8
		c6.9,25.7,22.9,45.4,41.7,63.2C774.7,845.5,778.5,848.3,782.2,851.3z M750.4,826.7c-6.5-9.9-13.2-20.2-19.4-29.6
		C731.5,805.8,739.1,817.8,750.4,826.7z"/>
	<path d="M714,798.8c14.7,21.3,33.3,38.4,55.9,52.4C757,851.5,717.7,814.5,714,798.8z"/>
	<path d="M825.3,880.5c-5.4-9.6-10.2-20.2-16.9-29.4c-6.6-9.1-15.1-16.7-22.9-25.1C801.4,831.2,826.2,865.7,825.3,880.5z"/>
	<path d="M993.7,626.3c-7.3-3-14.4-6.4-21.8-8.9c-13.3-4.5-26.9-5.2-40.8-3.6c-17.2,2-34.2,0.3-50.6-5.4c-5.5-1.9-11-4.1-16.5-6.2
		c0.2-0.6,0.3-1.1,0.5-1.7c3.3,0.8,6.8,1.3,10,2.5c8,3.2,16.5,3.4,24.5,1.8c26.5-5.3,51.4-0.7,75.4,10.5c5.4,2.5,10.7,5.1,16,7.8
		c1.4,0.7,2.6,1.7,3.9,2.6C994.1,625.9,993.9,626.1,993.7,626.3z M946.4,609.6c-16.1-3.9-32.3-2.5-48.6-1
		C913.9,612.7,930.2,609.4,946.4,609.6z"/>
	<path d="M928.6,617.3c-8.9,1.1-17.7,2.5-26.6,3.3c-10.9,1-21.8,2.3-32.8,2.3c-17.3,0-30.4-9-41.3-21.6c-0.3-0.3-0.2-0.9-0.6-2.3
		c2.5,1.1,4.6,1.7,6.5,2.7c19.5,10.9,40.6,14.7,62.7,14.4c10.5-0.1,20.9,0,31.4,0c0.2,0,0.4,0,0.5,0.1
		C928.5,616.6,928.5,616.9,928.6,617.3z M879.7,620c-10.7-2.3-22.1-4.8-33.9-7.4C856.5,620,868.3,621.1,879.7,620z"/>
	<path d="M911.1,624.1c-10.9,9.4-66.3,10.7-75.9,1.4C861.2,630.6,886.2,629.6,911.1,624.1z"/>
	<path d="M906.6,594.8c19.6-8.1,53.5,0.1,65,11.2C951.1,595.3,929.1,594,906.6,594.8z"/>
	<path d="M516.9,925.6c0,3.4,0,6.9,0,10.3c-0.4,0-0.8,0.1-1.2,0.1c-0.6-5-1.2-10.1-1.8-15.1c-1.4-11.5-2.2-23.2-4.5-34.5
		c-4.4-21.1,5.4-48.4,22.7-58.5c-6.8,14.5-13.4,29.1-14.8,45.1c-1.5,16-1.3,32.2-1.1,48.3c0.5-20.4,5.5-39.5,15.1-57.7
		c0,0.9,0.2,1.9,0,2.8c-1.1,4-2,8-3.5,11.9c-3.6,9.4-1.1,18.9,0.3,28.1c2.8,18.2,1,35.8-5.5,52.8c-4.2,11.1-9.7,21.8-14.6,32.6
		c-0.4,0.9-1.3,1.6-2.7,2.2C517.7,972.5,521.2,949.7,516.9,925.6z M523.3,897.9c-4.2,15.7-0.7,31.7-1,47.5
		C526.7,929.7,525,913.8,523.3,897.9z M519.3,845.4c-7.1,10.4-8.2,21.8-7.3,34.4C514.5,867.9,516.9,856.8,519.3,845.4z"/>
	<path d="M507.3,910.7c-8.7-24.9-9.7-49.9-2-75.1C501.8,860.7,502.6,885.7,507.3,910.7z"/>
	<path d="M536.3,905.6c8.8,11.4,2,54.4-10.5,66.4C536.5,951.1,539,928.8,536.3,905.6z"/>
	<path d="M139.5,505.8c4.3,1.9,8.6,3.8,13,5.7c16.5,7.3,33.7,7.6,51.3,6c14.8-1.4,29.6-0.5,43.8,4.5c6.8,2.4,13.6,4.8,20.4,7.3
		c-0.1,0.6-0.3,1.1-0.4,1.7c-2.9-0.6-6-0.7-8.7-1.8c-11.5-4.9-23.2-2.9-34.8-1c-17.3,2.8-34.3,0.5-50.5-5.4
		c-10.8-4-21.1-9.4-31.7-14.3c-1-0.5-1.8-1.4-2.7-2C139.3,506.2,139.4,506,139.5,505.8z M186.9,521.8c15.6,4.6,31.3,2.6,47,2
		c0-0.7,0-1.4,0-2C218.3,521.8,202.6,521.8,186.9,521.8z"/>
	<path d="M304.5,532.7c-3.9-1.9-7-3.3-10-4.8c-15.5-7.8-32-11.8-49.3-11.9c-15.4-0.1-30.8,0.6-46.2,0.9c-1,0-1.9-0.2-3.1-1
		c2.1-0.4,4.2-1.1,6.3-1.3c18.6-2.1,37.2-4.7,55.9-5.9c18.9-1.3,33.8,7.6,46,21.5C304.3,530.4,304.2,531,304.5,532.7z M252.9,511.9
		c11.2,2.4,22.5,4.9,34,7.4C276.4,512.5,265,510.4,252.9,511.9z"/>
	<path d="M295.7,505.1c-12-0.6-24.5-2.1-37-1.8c-12.5,0.3-25,2.4-37,3.7C227.2,498.6,288.3,497,295.7,505.1z"/>
	<path d="M161.3,527c9.7,2.7,20.4,6.7,31.4,8.4c11.1,1.7,22.5,1.2,33.9,1.6C210.4,545.2,169.7,536.9,161.3,527z"/>
	<path d="M847.6,354.1c-9.7,6.6-19.3,13.4-29.3,19.6c-5.2,3.2-11.1,5.1-16.7,7.5c-0.2-0.5-0.5-1-0.7-1.5c3.3-2,6.5-4.3,10-5.8
		c9.2-3.9,15.3-11.1,20.8-18.8c12.9-18.1,29.4-31.4,50.1-39.3c8.8-3.4,17.6-6.6,26.5-9.9c0.9-0.3,2-0.1,3.2,0.8
		c-5.2,1.8-10.5,3.4-15.5,5.5c-16,6.7-28.8,17.5-39.1,31.4c-0.2,0.2-0.2,0.6-0.2,1C853.7,347.8,850.6,350.9,847.6,354.1z
		 M830.1,362.3c14.7-8.5,24.3-22.3,35.6-34.3C851.1,336.5,840.8,349.6,830.1,362.3z"/>
	<path d="M847.6,354.1c3-3.2,6.1-6.4,9.1-9.5c2.1-1.9,4.2-3.8,6.3-5.7c0.3,0.3,0.6,0.5,0.8,0.8c-1.7,2.1-3.4,4.2-5.1,6.3
		c-11.4,14-22.7,28.1-34,42.1c-11.5,14.4-32.9,20.1-50.5,17.4c2.1-1.2,3.2-2.3,4.5-2.6c27.5-7.2,47.8-25.1,66.8-44.9
		C846.5,357,846.9,355.4,847.6,354.1z M796.6,401.5c12.3-2.9,21.9-9.1,30-19.2C816.2,388.9,806.6,395,796.6,401.5z"/>
	<path d="M851.2,363.5c-1.5,13.8-38.6,52.7-52,54.4C820.3,403.4,837.2,384.8,851.2,363.5z"/>
	<path d="M880.4,307.9c-22.1,7.6-39.5,21.8-54.4,40.9C829.3,332.6,865.3,305.9,880.4,307.9z"/>
	<path d="M601.3,268.1c-0.2-1.6-0.7-2.6-0.4-3.3c6.3-13.3,5.1-27.1,3-41c-2.8-19.4,0-38.1,7.5-56c4-9.6,8.9-18.8,13.4-28.1
		c0.2-0.5,0.8-0.9,1.8-1c-0.3,1-0.5,2.1-1,3c-11.3,19.5-14,40.5-11.4,62.6c2.5,21.8-2.6,42.2-11.3,62
		C602.8,266.7,602.2,267.1,601.3,268.1z M608.3,234.4c0.7,0,1.4,0.1,2.1,0.1c0-15.7,0-31.4,0-47.1c-0.4,0-0.9,0-1.3,0
		C605.5,203,607.3,218.7,608.3,234.4z"/>
	<path d="M598.4,304.7c21.9-34.7,19.3-72,17.8-109.5c0.5,2.3,1.3,4.6,1.6,6.9c1.9,16.5,3.7,33,5.6,49.5c2.4,21.6-5.7,38.9-21.8,52.8
		C601.2,304.6,600.6,304.5,598.4,304.7z M620.2,251.8c-2.5,11.6-5,23.4-7.4,34.8C620,276.2,621.2,264.1,620.2,251.8z"/>
	<path d="M625,221.8c9.1,24.5,9,49.2,2,74.1C630.9,271.1,629.6,246.4,625,221.8z"/>
	<path d="M595.6,226.6c-8.9-9.8-1.6-54.8,10.6-66.4C596.3,181.3,593,203.5,595.6,226.6z"/>
</g>
</svg>
