<?xml version="1.0" encoding="utf-8"?>
<!-- Generator: Adobe Illustrator 17.1.0, SVG Export Plug-In . SVG Version: 6.00 Build 0)  -->
<!DOCTYPE svg PUBLIC "-//W3C//DTD SVG 1.1//EN" "http://www.w3.org/Graphics/SVG/1.1/DTD/svg11.dtd">
<svg version="1.1" id="Layer_1" xmlns="http://www.w3.org/2000/svg" xmlns:xlink="http://www.w3.org/1999/xlink" x="0px" y="0px"
	 viewBox="0 0 841.9 595.3" enable-background="new 0 0 841.9 595.3" xml:space="preserve">
<g>
	<path fill="#DBBD7F" d="M397.4,46.9c-0.5-2.6-2.6-4.2-6.8-4.2H256.4c-0.5,0-1,0-1.6,0c-2.6,0.5-4.7,3.1-4.2,5.8
		c0,11.5-1,23.1-3.1,34.1c-2.1,6.3-3.7,12.1-5.2,17.3L73.4,585.7c-1.6,6.3,0,9.4,5.8,9.4h98.5c4.7,0.5,8.9-2.6,10-7.3l39.8-123.2
		h195l43,124.7c1,3.7,4.7,6.3,8.4,5.8h109.5c5.2,0,6.8-2.6,5.2-8.4L397.4,46.9z M257.9,358.2c7.9-22,15.7-46.6,23.1-73.4
		c8.4-26.2,16.2-52.4,24.1-77.6c7.3-22.5,13.1-45.1,17.8-67.6h1c3.7,12.6,7.3,26.2,11.5,40.9c4.2,15.2,8.9,30.4,14.2,46.6
		c5.2,16.2,10,32,15.2,48.2c4.7,15.7,9.4,30.9,14.2,45.1c4.7,13.6,8.9,26.7,12.1,37.7H257.9z"/>
	<path fill="#DBBD7F" d="M751.7,19.1C740.2,7,724.4,0.8,704,0.8c-17.3,0-34.1,6.3-46.6,18.3c-12.6,12.1-19.4,28.8-18.9,46.6
		c-0.5,17.8,5.8,35.1,17.8,48.2c12.6,12.1,29.4,18.9,46.6,18.3c17.8,1,35.6-5.8,47.7-18.3c12.6-13.1,18.9-30.4,18.3-48.2
		C769.5,48.4,763.2,31.7,751.7,19.1z"/>
	<path fill="#DBBD7F" d="M754.8,176.3H651.1c-4.7,0-6.8,2.1-6.8,7.3v403.6c0,5.2,2.6,8.4,7.9,8.4h102.7c4.7,0,6.8-2.6,6.8-8.4V183.7
		C761.6,179,759.6,176.3,754.8,176.3z"/>
</g>
</svg>
