<?xml version="1.0" encoding="utf-8"?>
<!-- Generator: Adobe Illustrator 17.1.0, SVG Export Plug-In . SVG Version: 6.00 Build 0)  -->
<!DOCTYPE svg PUBLIC "-//W3C//DTD SVG 1.1//EN" "http://www.w3.org/Graphics/SVG/1.1/DTD/svg11.dtd">
<svg version="1.1" id="Layer_1" xmlns="http://www.w3.org/2000/svg" xmlns:xlink="http://www.w3.org/1999/xlink" x="0px" y="0px"
	 viewBox="0 0 841.9 595.3" enable-background="new 0 0 841.9 595.3" xml:space="preserve">
<g>
	<path fill="#DBBD7F" d="M210.2,119c0-0.6,0-1.2,0-1.8c0.8,0,1.6-0.1,2.5-0.1c120.8,0,241.5,0,362.3,0c18.3,0,36.7,0,55,0
		c1.2,0,1.9,0.1,1.7,1.6c-1.1,11.1-2.1,22.2-3.1,33.2c-1.6,18.4-3.3,36.7-4.9,55.1c-1.8,19.7-3.5,39.4-5.3,59.1
		c-1.6,18.4-3.3,36.7-4.9,55.1c-1.8,19.7-3.5,39.4-5.3,59.1c-1.6,18.4-3.3,36.7-4.9,55.1c-1.8,19.7-3.5,39.4-5.3,59.1
		c-1.5,17-3.1,34.1-4.5,51.1c-0.1,1.2-0.5,1.7-1.7,2.1c-30.3,8.4-60.5,16.8-90.8,25.2c-26.1,7.3-52.3,14.5-78.4,21.7
		c-1,0.3-1.9,0.5-3.1,0.2c-43.5-12.1-87-24.2-130.5-36.3c-13.1-3.6-26.1-7.3-39.2-10.9c-0.8-0.2-1.4-0.3-1.4-1.4
		c-0.4-5-0.9-9.9-1.3-14.9c-1-11.1-1.9-22.3-2.9-33.4c-1.1-12.5-2.3-25-3.4-37.4c-1.1-12.5-2.2-25-3.3-37.4
		c-1.2-13.8-2.5-27.5-3.7-41.3c-1.1-12.5-2.2-25.1-3.3-37.6c-1.3-15-2.7-30.1-4.1-45.1c-1.2-13.8-2.4-27.6-3.6-41.5
		c-1.3-15.1-2.7-30.2-4.1-45.3c-1.2-13.8-2.4-27.6-3.6-41.5c-1.3-14.3-2.5-28.7-3.9-43C210.9,125.1,210.9,122,210.2,119z
		 M420.8,205.2C420.8,205.2,420.8,205.2,420.8,205.2c-0.7,0-1.4,0-2.1,0c-42.5,0-85.1,0-127.6,0c-0.4,0-0.8,0-1.2,0
		c-0.9-0.1-1.2,0.2-1.1,1.2c1.5,16.4,3,32.9,4.4,49.3c0.2,1.8,0.7,2.3,2.5,2.3c65.6,0,131.3,0,196.9,0c0.3,0,0.6,0,0.9,0
		c1.3-0.2,1.7,0.2,1.6,1.6c-0.5,5.3-1,10.6-1.4,15.9c-1,11.5-2.1,23.1-3,34.6c-0.1,1.7-0.7,1.9-2.2,1.9c-31.5,0-62.9,0-94.4,0
		c-31.2,0-62.3,0-93.5,0c-0.5,0-0.9,0-1.4,0c-0.7,0-0.9,0.3-0.8,1c0.5,5.2,0.9,10.4,1.4,15.6c1,11.3,2.1,22.6,3,33.9
		c0.1,1.7,0.6,2.3,2.4,2.3c59.4,0,118.8,0,178.2,0c0.5,0,0.9,0,1.4,0c0.9-0.1,1.1,0.2,1,1.1c-0.8,9.1-1.6,18.2-2.5,27.3
		c-1.1,12.8-2.3,25.7-3.4,38.5c-0.1,1.3-0.7,1.7-1.8,2c-18.8,5-37.6,10.1-56.4,15.2c-0.7,0.2-1.2,0.2-1.9,0
		c-18.8-5.1-37.6-10.2-56.4-15.2c-1.1-0.3-1.5-0.8-1.6-1.9c-0.3-4.4-0.7-8.8-1.1-13.1c-0.8-8.7-1.6-17.4-2.3-26.1
		c-0.1-1.1-0.4-1.4-1.6-1.4c-16.7,0-33.4,0-50.1,0c-1,0-1.4,0.2-1.3,1.3c0.6,5.5,1,11.1,1.5,16.6c0.9,9.9,1.7,19.7,2.6,29.6
		c1,11.2,2,22.4,3,33.6c0.1,1.3,0.5,1.9,1.8,2.2c32.9,9.1,65.8,18.1,98.7,27.5c5.5,1.6,10.5,1.5,16,0c32.8-9.3,65.7-18.3,98.5-27.4
		c1.2-0.3,1.7-0.7,1.8-2.1c0.3-4.3,0.7-8.5,1.1-12.8c1-11.2,2-22.4,3-33.6c0.8-8.5,1.5-16.9,2.2-25.4c0.9-10,1.8-20.1,2.7-30.1
		c0.9-9.7,1.7-19.4,2.6-29c1-11.1,2-22.2,3-33.2c0.9-9.9,1.7-19.7,2.6-29.6c1.1-12.4,2.2-24.8,3.4-37.3c1-11.5,2-23,3.1-34.5
		c0.2-1.7-0.3-2-1.9-2c-42.9,0-85.8,0-128.7,0C421.8,205.2,421.3,205.2,420.8,205.2z"/>
	<path fill="#DBBD7F" d="M450,0.2c0,7.3,0,14.6,0.1,22c0,1.4-0.7,1.3-1.6,1.3c-11.3,0-22.5,0-33.8,0c-0.6,0-1.7-0.5-1.8,0.5
		c-0.2,1.3-0.4,2.7,0.1,4c0.2,0.4,1,0.2,1.5,0.2c11.3,0,22.5,0,33.8,0c1.3,0,1.8,0.3,1.8,1.7c-0.1,16.8,0,33.5,0,50.3
		c0,1.2-0.3,1.6-1.5,1.6c-20.3,0-40.5,0-60.8,0c-1.3,0-1.6-0.4-1.6-1.7c0.1-7.1,0.1-14.2,0-21.3c0-1.3,0.4-1.5,1.6-1.5
		c11.3,0,22.6,0,33.9,0.1c1.5,0,1.8-0.4,1.8-1.8c-0.1-2.8,0-2.8-2.8-2.8c-10.9,0-21.8,0-32.7,0c-1.4,0-1.7-0.4-1.7-1.8
		c0-16.2,0-32.5,0-48.7c0-0.6-0.1-1.3-0.1-1.9C407.3,0.2,428.6,0.2,450,0.2z"/>
	<path fill="#DBBD7F" d="M526.6,0.2c0,7.4,0.1,14.9,0.1,22.3c0,1.4-0.9,0.9-1.6,0.9c-11.1,0-22.1,0-33.2,0c-0.8,0-2-0.5-2.2,0.3
		c-0.3,1.3-0.2,2.7-0.1,4c0.1,0.6,0.9,0.3,1.4,0.3c6.7,0,13.4,0,20,0c4.7,0,9.5,0,14.2,0c1,0,1.4,0.2,1.4,1.4c0,17,0,34,0,51
		c0,1.1-0.4,1.2-1.3,1.2c-20.4,0-40.8,0-61.2,0c-1.2,0-1.5-0.4-1.4-1.5c0-7.1,0.1-14.2,0-21.3c0-1.3,0.3-1.7,1.7-1.7
		c11.2,0.1,22.5,0,33.7,0.1c1.5,0,1.8-0.4,1.8-1.8c-0.1-2.8,0-2.8-2.8-2.8c-10.9,0-21.8,0-32.7,0c-1.1,0-1.7,0-1.7-1.4
		c0.1-16.7,0-33.4,0-50.1c0-0.3,0.1-0.6,0.1-0.9C484.2,0.2,505.4,0.2,526.6,0.2z"/>
	<path fill="#DBBD7F" d="M373.3,0.2c0,8.4,0,16.8,0,25.1c0,1.3-0.3,1.6-1.6,1.6c-11.3-0.1-22.6,0-33.9-0.1c-1.3,0-1.8,0.2-1.8,1.7
		c0.1,7.8,0.1,15.7,0,23.6c0,1.2,0.3,1.6,1.5,1.5c11.4,0,22.7,0,34.1-0.1c1.3,0,1.7,0.3,1.6,1.6c-0.1,7.8-0.1,15.7,0,23.6
		c0,1.3-0.2,1.6-1.6,1.6c-20.3-0.1-40.5-0.1-60.8,0c-1.4,0-1.6-0.4-1.6-1.7c0-25.5,0-51.1,0-76.6c0-0.6,0-1.3,0-1.9
		C330.7,0.2,352,0.2,373.3,0.2z"/>
</g>
</svg>
