<?xml version="1.0" encoding="utf-8"?>
<!-- Generator: Adobe Illustrator 17.1.0, SVG Export Plug-In . SVG Version: 6.00 Build 0)  -->
<!DOCTYPE svg PUBLIC "-//W3C//DTD SVG 1.1//EN" "http://www.w3.org/Graphics/SVG/1.1/DTD/svg11.dtd">
<svg version="1.1" id="Layer_1" xmlns="http://www.w3.org/2000/svg" xmlns:xlink="http://www.w3.org/1999/xlink" x="0px" y="0px"
	 viewBox="0 0 841.9 595.3" enable-background="new 0 0 841.9 595.3" xml:space="preserve">
<g>
	<path fill="#DBBD7F" d="M419.5,595.6c-2.8-1.5-5.9-2-8.9-2.8c-53.2-14.8-106.4-29.5-159.6-44.1c-2-0.5-2.7-1.2-2.9-3.3
		c-2-24-4.2-48.1-6.4-72.1c-2.1-23.1-4.2-46.2-6.3-69.4c-1.7-19.6-3.4-39.2-5.2-58.8c-1.9-21.2-3.9-42.5-5.7-63.7
		c-1.7-19.5-3.4-39-5.1-58.5c-1.7-19.4-3.5-38.8-5.3-58.3c-1.4-15.1-2.6-30.1-4.1-45.2c-0.2-2.1,0.7-2.2,2.3-2.2
		c21.8,0,43.7,0,65.5,0c116.9,0,233.8,0,350.7,0c3.3,0,3.2,0,2.9,3.4c-1.1,12-2.2,24-3.3,36c-1.4,16-2.9,32.1-4.3,48.1
		c-1.2,13.7-2.4,27.3-3.6,41c-1.4,16-2.9,32.1-4.3,48.1c-1.2,13.8-2.4,27.7-3.7,41.5c-1.4,15.8-2.9,31.6-4.3,47.4
		c-1.2,13.7-2.4,27.5-3.7,41.2c-1.4,16-2.9,31.9-4.3,47.9c-1.2,13.7-2.4,27.5-3.7,41.2c-1,11-2,22-2.9,33.1c-0.1,1.7-1.3,1.7-2.3,2
		c-15.1,4.2-30.2,8.4-45.3,12.5c-41.3,11.4-82.5,22.8-123.8,34.3c-0.3,0.1-0.6,0.3-0.8,0.5C420.8,595.6,420.1,595.6,419.5,595.6z
		 M420.9,205.2C420.9,205.2,420.9,205.3,420.9,205.2c-1.1,0.1-2.1,0.1-3.2,0.1c-42,0-84,0-126,0c-3.3,0-3.2,0-2.9,3.2
		c1,10.1,1.9,20.2,2.8,30.4c1.2,13.7,2.4,27.3,3.7,41c1.3,14,2.5,28,3.8,42c1.2,13.5,2.5,27,3.6,40.5c0.2,2.2,1,2.6,3,2.6
		c58.9,0,117.9,0,176.8,0.1c0.6,0,1.2,0,1.7,0c1.3-0.1,1.6,0.2,1.5,1.6c-2,21.6-3.9,43.1-5.8,64.7c-0.1,1.6-0.7,2.4-2.3,2.8
		c-18.3,4.8-36.5,9.7-54.7,14.7c-1.4,0.4-2.7,0.4-4.1,0c-18.2-4.9-36.5-9.8-54.7-14.7c-1.7-0.4-2.2-1.2-2.3-2.8
		c-1-12.3-2.2-24.5-3.2-36.8c-0.2-2.4-0.6-3.3-3.4-3.3c-15.6,0.2-31.3,0.1-46.9,0.1c-3,0-3.1,0-2.8,3.1c0.7,7.7,1.4,15.5,2.1,23.2
		c1.6,18,3.3,36,4.8,54.1c0.2,1.9,0.8,2.7,2.6,3.2c34.6,9.6,69.1,19.2,103.7,28.9c1.4,0.4,2.7,0.4,4.1,0
		c33.2-9.2,66.4-18.5,99.7-27.7c6.6-1.8,6.6-1.8,7.2-8.6c2.3-25.8,4.6-51.7,6.9-77.5c2.2-24.9,4.4-49.9,6.7-74.8
		c0.3-2.7-0.4-3.1-2.8-3.1c-61.8,0.1-123.7,0.1-185.5,0.1c-0.7,0-1.3-0.1-2,0c-1.4,0.2-1.8-0.5-1.9-1.9c-0.2-2.9-0.5-5.8-0.7-8.6
		c-1.2-13.7-2.4-27.5-3.7-41.2c-0.2-2,0.4-2.5,2.3-2.5c24.3,0.1,48.6,0.1,72.9,0.1c41.3,0,82.7,0,124,0c1.9,0,2.6-0.5,2.7-2.4
		c0.7-8.6,1.6-17.3,2.4-25.9c0.7-7.3,1.3-14.7,2.1-22c0.2-2.3-0.4-2.7-2.6-2.7c-38,0.1-76.1,0.1-114.1,0.1
		C431.1,205.2,426,205.2,420.9,205.2z"/>
	<path fill="#DBBD7F" d="M515.7,0.3c-0.1,0.9-0.2,1.8-0.2,2.7c0,25,0,49.9,0,74.9c0,2.1-0.4,2.8-2.7,2.8c-7.3-0.2-14.5-0.1-21.8,0
		c-1.9,0-2.3-0.5-2.3-2.3c0.1-11.6,0.1-23.1,0-34.7c0-0.6,0.3-1.3-0.5-2c-6,9.3-12,18.5-18.2,28c-6.2-9.5-12.2-18.8-18.3-28.2
		c-0.8,0.8-0.4,1.5-0.4,2.2c0,11.4-0.1,22.8,0,34.2c0,2.4-0.7,2.8-2.9,2.8c-7-0.1-14.1-0.1-21.1,0c-2,0-2.4-0.5-2.4-2.5
		c0.1-25,0-50.1,0-75.1c0-0.9,0-1.8-0.1-2.7c9.4,0,18.9,0,28.3,0c5.6,9.3,11.2,18.7,17,28.3c5.9-9.7,11.5-19,17.2-28.3
		C496.9,0.3,506.3,0.3,515.7,0.3z"/>
	<path fill="#DBBD7F" d="M327.7,0.3c-0.1,0.9-0.2,1.8-0.2,2.7c0,25,0,49.9,0,74.9c0,2.1-0.3,2.8-2.7,2.8c-7.3-0.2-14.5-0.1-21.8,0
		c-1.8,0-2.4-0.4-2.4-2.3c0.1-7.4,0-14.9,0.1-22.3c0-1.7-0.3-2.3-2.1-2.2c-6.8,0.1-13.6,0.1-20.3,0c-1.9,0-2.1,0.7-2.1,2.3
		c0.1,7.4,0,14.9,0.1,22.3c0,1.9-0.6,2.3-2.4,2.3c-7.4-0.1-14.9-0.1-22.3,0c-2,0-2.4-0.6-2.4-2.5c0.1-25.9,0-51.9,0-77.8
		c8.9,0,17.9,0,26.8,0c0,8.2,0,16.4,0,24.5c0,1.7,0.5,2,2.1,2c6.6-0.1,13.2-0.1,19.8,0c2.2,0,3-0.4,2.9-2.8
		c-0.1-7.9,0-15.8,0.1-23.8C309.9,0.3,318.8,0.3,327.7,0.3z"/>
	<path fill="#DBBD7F" d="M413.5,0.3c-0.5,6.6-0.1,13.2-0.2,19.8c0,2.2,0.7,5.2-0.4,6.5c-1.3,1.5-4.3,0.4-6.6,0.5
		c-4.9,0.1-9.8,0.1-14.6,0c-1.8-0.1-2.1,0.5-2.1,2.2c0.1,16.2,0,32.4,0.1,48.6c0,2.4-0.7,2.8-2.9,2.8c-7.2-0.1-14.4-0.1-21.6,0
		c-2,0-2.4-0.6-2.4-2.5c0.1-16.2,0-32.4,0.1-48.6c0-2.1-0.6-2.6-2.6-2.5c-6.3,0.1-12.6,0-18.8,0.1c-1.8,0-2.4-0.3-2.4-2.3
		c0.1-8.2,0-16.4,0-24.5C363.9,0.3,388.7,0.3,413.5,0.3z"/>
	<path fill="#DBBD7F" d="M555.4,0.3c0,17,0.1,34.1,0,51.1c0,2.3,0.7,2.7,2.8,2.6c11-0.1,22,0,33-0.1c1.9,0,2.4,0.5,2.3,2.3
		c-0.1,7.4-0.1,14.7,0,22.1c0,1.9-0.5,2.3-2.4,2.3c-20-0.1-40-0.1-60,0c-2,0-2.4-0.5-2.4-2.5c0.1-25.5,0-50.9,0-76.4
		c0-0.5-0.1-1-0.1-1.5C537.5,0.3,546.5,0.3,555.4,0.3z"/>
</g>
</svg>
