<?xml version="1.0" encoding="utf-8"?>
<!-- Generator: Adobe Illustrator 17.1.0, SVG Export Plug-In . SVG Version: 6.00 Build 0)  -->
<!DOCTYPE svg PUBLIC "-//W3C//DTD SVG 1.1//EN" "http://www.w3.org/Graphics/SVG/1.1/DTD/svg11.dtd">
<svg version="1.1" id="Layer_1" xmlns="http://www.w3.org/2000/svg" xmlns:xlink="http://www.w3.org/1999/xlink" x="0px" y="0px"
	 viewBox="0 0 841.9 595.3" enable-background="new 0 0 841.9 595.3" xml:space="preserve">
<g>
	<path fill="#DBBD7F" d="M123.3,0v595.3h595.3V0H123.3z M447.3,464.3c0,57.9-34,84.3-83.5,84.3c-44.8,0-70.7-23.2-83.9-51.1l0,0
		l45.6-27.6c8.8,15.6,16.8,28.8,36,28.8c18.4,0,30-7.2,30-35.2V273.3h55.9V464.3z M579.5,548.6c-51.9,0-85.5-24.8-101.9-57.1l0,0
		l45.5-26.4c12,19.6,27.6,34,55.1,34c23.2,0,38-11.6,38-27.6c0-19.2-15.2-26-40.8-37.2l-14-6c-40.4-17.2-67.1-38.8-67.1-84.3
		c0-42,32-73.9,81.9-73.9c35.6,0,61.1,12.4,79.5,44.8l-43.6,28c-9.6-17.2-20-24-36-24c-16.4,0-26.8,10.4-26.8,24
		c0,16.8,10.4,23.6,34.4,34l14,6c47.6,20.4,74.3,41.2,74.3,87.9C672.2,521,632.7,548.6,579.5,548.6z"/>
</g>
</svg>
