<?xml version="1.0" encoding="utf-8"?>
<!-- Generator: Adobe Illustrator 17.1.0, SVG Export Plug-In . SVG Version: 6.00 Build 0)  -->
<!DOCTYPE svg PUBLIC "-//W3C//DTD SVG 1.1//EN" "http://www.w3.org/Graphics/SVG/1.1/DTD/svg11.dtd">
<svg version="1.1" id="Layer_1" xmlns="http://www.w3.org/2000/svg" xmlns:xlink="http://www.w3.org/1999/xlink" x="0px" y="0px"
	 viewBox="0 0 841.9 595.3" enable-background="new 0 0 841.9 595.3" xml:space="preserve">
<g>
	<path fill="#DBBD7F" d="M180.1,407.6c5.5,0.7,14.6,0.7,28,0.7c45.9,0,88.1-4.9,126.2-19c36.6-13.5,68-37.1,90.5-68.4
		c22.5-31.6,33.8-71.3,33.5-119.6c0-25.4-4.6-49.4-13-73.1c-9-24.1-23.2-46.1-41.1-64c-21.4-21-47.2-36.6-75.3-46.1
		C297.7,6.1,259.5,0.6,213.4,0.6c-16.8,0-33.5,0-51,0.7c-17.4,0.4-33.5,0.4-48.8,1.1C98.6,2.8,84.5,2.8,71,3.5
		C58.2,4.2,49.2,4.2,39.7,4.2c-3.8,0-5.5,2.2-5.5,6.2v577.6c0,5.1,2.4,7.3,6.8,7.3h106.6c1.1,0,1.5,0,2.2,0c4-0.7,6.8-4,6.2-7.9
		V406.9C166.6,406.9,174.5,406.9,180.1,407.6z M156.7,112.7c4-0.7,11.7-1.3,23-0.7c10.6-0.7,23.6-0.7,38.2-0.7
		c23-0.4,45.5,2.9,66.2,11.3c16.3,6.2,29.8,17.4,39.5,32.2c9,15,13.7,32.4,13,49.9c0,24.7-5.7,43.7-17.4,57.8
		c-12.4,14.1-28.2,24.7-46.1,29.8c-21,6.8-42.8,10.2-64.7,10.2h-29.8c-6.6,0-13.9-0.4-21.8-1.1V112.7z"/>
	<path fill="#DBBD7F" d="M799.6,135.9c-29.8,0-59.6,7.3-85.4,21.8c-23,12.4-43.3,28.7-60,48.3c0-7.3-0.4-14.1-1.1-20.3
		c-0.7-5.7-1.8-11.9-2.9-17.4c-0.4-5.1-1.5-9.7-3.3-14.1c-1.5-5.1-6.2-9-11.7-9h-98.2c-0.7-0.7-1.8-0.7-1.8,0
		c-2.9,0.7-4.6,3.3-4,6.2c1.1,13,2.2,25.2,2.2,38.2c0.4,14.6,0.4,29.1,1.1,43.7c0.7,14.6,0.7,28.7,0.7,42.2v310.7c0,0.4,0,1.5,0,2.2
		c0.7,4.6,4.6,7.5,9,6.8h110.6c5.1,0,7.3-2.4,7.3-7.9V301c7.9-9,18.1-15.7,28.7-20.7c15.2-6.8,30.9-11.9,47.2-15.2
		c19.6-4.4,40.4-6.2,60.7-5.5c6.2,0,9-1.8,9-6.2V143.9c0-1.1,0-1.5-0.2-1.8C806.8,138.1,803.5,135.2,799.6,135.9z"/>
</g>
</svg>
