<?xml version="1.0" encoding="utf-8"?>
<!-- Generator: Adobe Illustrator 17.1.0, SVG Export Plug-In . SVG Version: 6.00 Build 0)  -->
<!DOCTYPE svg PUBLIC "-//W3C//DTD SVG 1.1//EN" "http://www.w3.org/Graphics/SVG/1.1/DTD/svg11.dtd">
<svg version="1.1" id="Layer_1" xmlns="http://www.w3.org/2000/svg" xmlns:xlink="http://www.w3.org/1999/xlink" x="0px" y="0px"
	 viewBox="0 0 841.9 595.3" enable-background="new 0 0 841.9 595.3" xml:space="preserve">
<g>
	<path fill="#DBBD7F" d="M386.5,62.4c-21-20.6-46.4-36-73.9-45.3C281.8,5.4,244.3,0,199,0c-16.5,0-32.9,0.2-50.1,0.7
		s-33.2,0.7-47.9,1.1C86.4,2.2,72.5,2.2,59.3,2.8C46.7,3.5,37.8,3.5,28.5,3.5c-3.7,0-5.4,2.2-5.4,6.1v567.1c0,5,2.4,7.2,6.7,7.2
		h104.7c1.1,0,1.5,0,2.2,0c3.9-0.7,6.7-3.9,6.1-7.8v-177c10.4,0,18.2,0,23.6,0.7c5.4,0.7,14.3,0.7,27.5,0.7
		c45.1,0,86.5-4.8,123.9-18.6c36-13.2,66.7-36.4,88.8-67.2c22.1-31,33.2-70,32.9-117.4c0-24.9-4.6-48.5-12.8-71.7
		C417.9,101.6,404,80,386.5,62.4z M319.9,200.5c0,24.3-5.6,42.9-17.1,56.8c-12.1,13.9-27.7,24.3-45.3,29.3c-20.6,6.7-42,10-63.5,10
		h-29.3c-6.5,0-13.7-0.4-21.5-1.1V110.1c3.9-0.7,11.5-1.3,22.5-0.7c10.4-0.7,23.2-0.7,37.5-0.7c22.5-0.4,44.6,2.8,65,11.1
		c15.8,6.1,29,17.1,38.8,31.6C316,166.2,320.6,183.3,319.9,200.5z"/>
	<path fill="#DBBD7F" d="M806,399.2c-10.4-18.6-25.4-34.2-43.6-45.7c-26.4-16.7-55.3-30.3-84.9-40.3c-13.2-5.4-26.4-11.5-39.2-18.2
		c-7.2-3.9-13.7-8.9-18.6-15c-3.3-4.3-5.4-9.3-5.4-14.3c0-5,1.5-10.6,4.3-15c3.9-5.6,10-9.3,17.1-11.1c10.6-2.8,22.1-4.6,33.2-3.9
		c21,0,41.4,2.8,61.8,7.2c18.6,3.7,36.4,9.8,52.9,18.6c2.2,1.1,5,1.1,10,0c1.7-1.1,2.8-3.3,2.8-5.4v-89.9c0-2.4-0.4-4.6-1.1-6.7
		c-1.1-2.2-3.3-4.3-5.4-5c-15-6.1-31-10.6-47.5-12.8c-22.5-3.3-45.7-5-68.3-5c-39,0-71.5,6.1-97.5,19.3
		c-23.6,11.1-44,28.6-57.9,50.7c-11.9,20.4-18.6,43.1-18.6,66.7c-0.4,19.3,3.9,38.6,12.8,56.1c10.4,18.6,24.7,34.7,41.8,46.8
		c24.3,16.5,50.1,29.7,78.2,39.7c26.9,10.6,45.1,18.9,54,26c8.9,7.2,13.2,14.3,13.2,22.1c0,10-6.1,19.3-15,23.2
		c-10,5-24.7,7.8-45.7,7.8c-22.1,0-44-2.8-65-8.2c-24.1-5.6-46.8-14.3-68.3-27.1c-1.7-1.3-3.3-1.7-5-0.7c-1.5,1.1-2.2,3.3-2.2,5v96
		c-0.7,4.3,2.2,8.2,6.1,10.4c17.6,8.2,36.8,14.3,56.1,17.6c24.9,5,49.6,7.2,75,7.2c39.7,0,72.6-6.1,99.7-17.6
		c24.9-9.8,46.4-26.9,61.8-49c14.3-21.5,21.9-47.5,21.2-72.8C819.2,436,814.9,416.7,806,399.2z"/>
</g>
</svg>
