<?xml version="1.0" encoding="utf-8"?>
<!-- Generator: Adobe Illustrator 17.1.0, SVG Export Plug-In . SVG Version: 6.00 Build 0)  -->
<!DOCTYPE svg PUBLIC "-//W3C//DTD SVG 1.1//EN" "http://www.w3.org/Graphics/SVG/1.1/DTD/svg11.dtd">
<svg version="1.1" id="Layer_1" xmlns="http://www.w3.org/2000/svg" xmlns:xlink="http://www.w3.org/1999/xlink" x="0px" y="0px"
	 viewBox="0 0 841.9 595.3" enable-background="new 0 0 841.9 595.3" xml:space="preserve">
<path fill="#DBBD7F" d="M706.6,342.4c-27.7,0.2-51.6,6.8-71.7,16.7c-7.4-14.7-14.8-27.5-16.1-37.1c-1.4-11.1-3.1-17.9-1.4-31.2
	c1.7-13.3,9.4-32.2,9.4-33.7c-0.2-1.4-1.7-8.2-17.6-8.3c-15.9-0.2-29.7,3.1-31.2,7.3c-1.5,4.2-4.6,13.8-6.6,23.7
	c-2.8,14.5-31.9,66-48.4,93.1c-5.4-10.5-10-19.8-11-27.2c-1.4-11.1-3.1-17.9-1.4-31.2c1.7-13.3,9.4-32.2,9.4-33.7
	c-0.2-1.4-1.7-8.2-17.6-8.3c-15.9-0.2-29.7,3.1-31.2,7.3c-1.5,4.2-3.2,14.1-6.6,23.7c-3.2,9.6-41.9,95.6-52,118
	c-5.1,11.4-9.6,20.6-12.8,26.7c-3.2,6.2-0.2,0.5-0.5,1.1c-2.8,5.3-4.3,8.2-4.3,8.2v0.2c-2.2,3.9-4.5,7.6-5.6,7.6
	c-0.8,0-2.3-10.4,0.3-24.6c5.7-29.8,19.6-76.4,19.5-78.1c0-0.8,2.6-9-9-13.1c-11.3-4.2-15.3,2.8-16.2,2.8c-0.9,0-1.7,2.5-1.7,2.5
	s12.5-52.4-24-52.4c-22.9,0-54.4,24.9-70,47.6c-9.9,5.4-30.9,16.9-53.2,29.1c-8.5,4.6-17.3,9.6-25.7,14.1l-1.7-1.9
	c-44.2-47.2-126-80.6-122.6-143.9c1.2-23,9.3-83.8,157.1-157.4c121.1-60.3,218-43.8,234.9-7c24,52.6-51.8,150.3-177.7,164.4
	c-47.9,5.4-73.1-13.1-79.5-20.1c-6.6-7.3-7.6-7.6-10-6.2c-4,2.2-1.5,8.7,0,12.5c3.7,9.7,19.2,27.1,45.5,35.7
	c23,7.6,79.3,11.8,147.3-14.5c76.2-29.5,135.8-111.5,118.3-180C503.1,4.6,387.5-18.3,278.1,20.5C213,43.7,142.5,79.9,91.8,127.3
	C31.5,183.6,21.9,232.8,26,253.2C40,326,140.4,373.5,180.6,408.6c-2,1.1-3.9,2.2-5.6,3.1c-20.1,9.9-96.6,49.9-115.8,92.3
	c-21.6,47.9,3.4,82.4,20.1,87c51.6,14.4,104.5-11.4,133.1-54c28.4-42.5,25-97.7,11.9-122.9l-0.5-0.9l15.8-9.3
	c10.2-6,20.3-11.6,29.1-16.4c-4.9,13.5-8.5,29.4-10.4,52.6c-2.2,27.2,9,62.5,23.7,76.4c6.5,6,14.2,6.2,19,6.2
	c17,0,24.7-14.1,33.2-30.9c10.5-20.6,19.8-44.4,19.8-44.4s-11.6,64.5,20.1,64.5c11.6,0,23.2-15,28.4-22.7v0.2c0,0,0.3-0.5,0.9-1.5
	c0.6-1,1.3-1.9,1.9-2.9v-0.3c4.6-8,15-26.4,30.5-56.9c19.9-39.3,39.1-88.4,39.1-88.4s1.9,12.1,7.6,31.9
	c3.4,11.8,10.8,24.6,16.5,37.1c-4.6,6.5-7.4,10.2-7.4,10.2l0.2,0.2c-3.7,4.9-7.9,10.2-12.2,15.5c-15.8,18.9-34.6,40.4-37.1,46.5
	c-2.9,7.3-2.3,12.7,3.4,17c4.2,3.1,11.6,3.7,19.5,3.1c14.2-0.9,24.1-4.5,29.1-6.6c7.7-2.8,16.5-7,25-13.1
	c15.5-11.4,24.9-27.7,24-49.3c-0.5-11.9-4.3-23.7-9.1-34.8c1.4-2,2.8-4,4.2-6.2c24.4-35.7,43.3-75,43.3-75s1.9,12.1,7.6,31.9
	c2.9,10,8.8,21,14.1,31.9c-22.9,18.7-37.3,40.4-42.2,54.6c-9.1,26.3-2,38.2,11.4,41c6,1.2,14.7-1.5,21.2-4.3
	c8-2.6,17.8-7.1,26.8-13.8c15.5-11.4,30.3-27.4,29.5-48.9c-0.5-9.9-3.1-19.6-6.6-28.9c19.5-8,44.7-12.7,76.7-8.8
	c68.8,8,82.4,51,79.8,69c-2.6,17.9-17,27.8-21.8,30.9c-4.8,2.9-6.3,4-5.9,6.2c0.6,3.2,2.8,3.1,7,2.5c5.7-0.9,36.2-14.7,37.4-47.8
	C818.5,388.3,778.2,341.9,706.6,342.4L706.6,342.4z M175.9,521.3c-22.7,24.9-54.7,34.3-68.3,26.3c-14.7-8.5-9-45.1,19-71.6
	c17-16.1,39.1-30.9,53.7-40c3.2-2,8.2-4.9,14.1-8.5c0.9-0.6,1.5-0.9,1.5-0.9c1.1-0.6,2.3-1.4,3.6-2.2
	C209.8,462.1,199.9,495.2,175.9,521.3L175.9,521.3z M342.1,408.3c-7.9,19.3-24.6,69-34.6,66.2c-8.7-2.3-13.9-39.9-1.7-77
	c6.2-18.7,19.3-41,27.1-49.6c12.5-13.9,26.1-18.6,29.5-12.8C366.4,342.4,347.1,396.2,342.1,408.3z M479.3,473.8
	c-3.4,1.7-6.5,2.9-7.9,2c-1.1-0.6,1.4-2.9,1.4-2.9s17.2-18.4,24-26.9c3.9-4.9,8.5-10.7,13.5-17.2v1.9
	C510.2,453,488.9,467.8,479.3,473.8L479.3,473.8z M585,449.7c-2.5-1.9-2.2-7.6,6.2-25.5c3.2-7.1,10.7-19,23.5-30.3
	c1.5,4.6,2.5,9.1,2.3,13.3C616.9,435,597.1,445.4,585,449.7z"/>
</svg>
